<svg width="233.000000" height="61.000000" viewBox="0 0 233 61" fill="none" xmlns="http://www.w3.org/2000/svg" xmlns:xlink="http://www.w3.org/1999/xlink">
	<desc>
			Created with Pixso.
	</desc>
	<defs/>
	<path id="&lt;" d="M16.13 38.62Q16.33 38.7 16.45 38.7Q16.73 38.7 16.94 38.58Q17.01 38.53 17.08 38.47Q17.17 38.39 17.23 38.28Q17.33 38.1 17.33 37.86L17.33 33.32Q17.33 32.75 17.05 32.41Q17 32.36 16.95 32.32Q16.57 31.98 16.15 31.68L7 25.69L16.15 19.68Q16.35 19.54 16.54 19.39Q16.75 19.22 16.95 19.03Q17 18.99 17.04 18.94Q17.33 18.59 17.33 18L17.33 13.5Q17.33 13.17 17.17 12.96Q17.13 12.91 17.08 12.86Q17 12.78 16.91 12.73Q16.71 12.62 16.45 12.62Q16.33 12.62 16.13 12.7Q15.95 12.79 15.73 12.91L0.62 23.2Q0.02 23.62 -0.29 24Q-0.3 24.01 -0.3 24.01Q-0.6 24.39 -0.6 25.01L-0.6 26.31Q-0.6 26.92 -0.31 27.31Q-0.3 27.32 -0.29 27.34Q0.02 27.74 0.62 28.16L15.73 38.45Q15.95 38.53 16.13 38.62Z" fill="#D77CE6" fill-opacity="1.000000" fill-rule="evenodd"/>
	<path id="&lt;" d="M17.36 22.37Q17.16 22.29 17.04 22.29Q16.76 22.29 16.55 22.41Q16.48 22.46 16.41 22.52Q16.32 22.61 16.26 22.71Q16.16 22.89 16.16 23.13L16.16 27.67Q16.16 28.24 16.44 28.58Q16.49 28.63 16.54 28.67Q16.92 29.01 17.34 29.31L26.49 35.3L17.34 41.31Q17.14 41.45 16.95 41.6Q16.74 41.77 16.54 41.96Q16.49 42 16.45 42.05Q16.16 42.4 16.16 43L16.16 47.49Q16.16 47.82 16.32 48.03Q16.36 48.08 16.41 48.13Q16.49 48.21 16.58 48.26Q16.78 48.37 17.04 48.37Q17.16 48.37 17.36 48.29Q17.54 48.2 17.76 48.08L32.87 37.79Q33.47 37.37 33.78 36.99Q33.79 36.98 33.79 36.98Q34.09 36.6 34.09 35.98L34.09 34.68Q34.09 34.07 33.8 33.68Q33.79 33.67 33.78 33.65Q33.47 33.25 32.87 32.83L17.76 22.54Q17.54 22.46 17.36 22.37Z" fill="#753DCD" fill-opacity="1.000000" fill-rule="evenodd"/>
	<path id="PurpleSchool" d="M141.85 24.56L138.31 24.56C138.18 23.19 137.09 22.39 135.33 22.39C133.52 22.39 132.52 23.21 132.52 24.34C132.5 25.59 133.77 26.16 135.29 26.5L136.85 26.88C139.89 27.56 142.08 29.1 142.08 32.01C142.08 35.21 139.57 37.24 135.31 37.24C131.08 37.24 128.37 35.29 128.28 31.52L131.85 31.52C131.97 33.26 133.35 34.15 135.27 34.15C137.14 34.15 138.35 33.28 138.36 32C138.35 30.83 137.3 30.28 135.39 29.82L133.49 29.34C130.55 28.63 128.73 27.16 128.74 24.58C128.73 21.41 131.53 19.3 135.35 19.3C139.24 19.3 141.8 21.45 141.85 24.56ZM56.2 37L52.51 37L52.51 19.54L59.4 19.54C63.36 19.54 65.66 21.99 65.66 25.46C65.66 28.94 63.32 31.33 59.3 31.33L56.2 31.33L56.2 37ZM107.9 19.54L111.53 19.54L111.53 37L107.9 37L107.9 19.54ZM164.74 26.75C163.25 26.75 162.22 27.74 162.22 29.42L162.22 37L158.58 37L158.58 19.54L162.11 19.54L162.11 26.21L162.27 26.21C162.86 24.67 164.19 23.74 166.18 23.74C168.91 23.74 170.71 25.59 170.71 28.66L170.71 37L167.08 37L167.08 29.31C167.08 27.7 166.21 26.75 164.74 26.75ZM203.02 19.54L206.66 19.54L206.66 37L203.02 37L203.02 19.54ZM56.2 22.56L56.2 28.38L58.71 28.38C60.82 28.38 61.85 27.19 61.85 25.46C61.85 23.72 60.82 22.56 58.69 22.56L56.2 22.56ZM86.54 37L82.91 37L82.91 23.91L86.43 23.91L86.43 26.19L86.57 26.19C87.05 24.57 88.25 23.72 89.71 23.72C90.08 23.72 90.53 23.77 90.86 23.85L90.86 27.06C90.52 26.96 89.83 26.87 89.32 26.87C87.72 26.87 86.54 27.98 86.54 29.59L86.54 37ZM96.35 41.91L92.72 41.91L92.72 23.91L96.3 23.91L96.3 26.1L96.46 26.1C96.95 25.04 98 23.74 100.19 23.74C103.06 23.74 105.49 25.97 105.49 30.47C105.49 34.84 103.16 37.21 100.18 37.21C98.06 37.21 96.97 35.99 96.46 34.9L96.35 34.9L96.35 41.91ZM126.33 33.25C125.82 35.68 123.63 37.25 120.39 37.25C116.36 37.25 113.9 34.66 113.9 30.51C113.9 26.47 116.4 23.74 120.25 23.74C123.71 23.74 126.41 25.93 126.41 30.38L126.41 31.38L117.49 31.38L117.49 31.39C117.49 33.34 118.64 34.54 120.46 34.54C121.66 34.54 122.6 34.02 122.97 33.02L126.33 33.25ZM156.25 32.2C156.08 35.21 153.89 37.25 150.41 37.25C146.37 37.25 143.96 34.48 143.96 30.5C143.96 26.49 146.42 23.74 150.39 23.74C153.8 23.74 156.1 25.72 156.25 28.75L152.83 28.75C152.63 27.44 151.78 26.57 150.45 26.57C148.76 26.57 147.65 27.98 147.65 30.45C147.65 32.96 148.75 34.38 150.45 34.38C151.69 34.38 152.61 33.6 152.83 32.2L156.25 32.2ZM185.93 30.5C185.93 34.53 183.46 37.25 179.49 37.25C175.51 37.25 173.04 34.53 173.04 30.5C173.04 26.44 175.51 23.74 179.49 23.74C183.46 23.74 185.93 26.44 185.93 30.5ZM200.65 30.5C200.65 34.53 198.19 37.25 194.21 37.25C190.24 37.25 187.77 34.53 187.77 30.5C187.77 26.44 190.24 23.74 194.21 23.74C198.19 23.74 200.65 26.44 200.65 30.5ZM73.89 34.09C75.19 34.09 76.39 33.17 76.38 31.42L76.38 23.91L80.02 23.91L80.02 37L76.53 37L76.53 34.62L76.39 34.62C75.8 36.15 74.39 37.16 72.42 37.16C69.79 37.16 68 35.3 67.99 32.24L67.99 23.91L71.62 23.91L71.62 31.59C71.63 33.13 72.52 34.09 73.89 34.09ZM120.31 26.44C118.7 26.44 117.57 27.64 117.49 29.13L122.99 29.13C122.98 27.57 121.89 26.44 120.31 26.44ZM176.73 30.47C176.73 32.76 177.67 34.44 179.5 34.44C181.3 34.44 182.24 32.76 182.24 30.47C182.24 28.19 181.3 26.5 179.5 26.5C177.67 26.5 176.73 28.19 176.73 30.47ZM191.46 30.47C191.46 32.76 192.4 34.44 194.23 34.44C196.03 34.44 196.97 32.76 196.97 30.47C196.97 28.19 196.03 26.5 194.23 26.5C192.4 26.5 191.46 28.19 191.46 30.47ZM99.03 26.62C97.27 26.62 96.28 28.11 96.28 30.45C96.28 32.78 97.28 34.32 99.03 34.32C100.81 34.32 101.78 32.74 101.78 30.45C101.78 28.18 100.83 26.62 99.03 26.62Z" fill="#FAFAFA" fill-opacity="1.000000" fill-rule="evenodd"/>
</svg>
