<svg width="24.000000" height="20.000000" viewBox="0 0 24 20" fill="none" xmlns="http://www.w3.org/2000/svg" xmlns:xlink="http://www.w3.org/1999/xlink">
	<desc>
			Created with Pixso.
	</desc>
	<defs/>
	<path id="telegram" d="M1.64 8.6C8.09 5.78 12.38 3.92 14.53 3.02C20.67 0.46 21.95 0.01 22.78 0C22.96 -0.01 23.37 0.04 23.63 0.25C23.86 0.44 23.92 0.68 23.95 0.86C23.98 1.03 24.01 1.42 23.98 1.73C23.65 5.24 22.21 13.77 21.48 17.71C21.17 19.37 20.56 19.93 19.97 19.99C18.69 20.1 17.71 19.13 16.47 18.31C14.52 17.03 13.43 16.23 11.54 14.98C9.36 13.54 10.77 12.74 12.01 11.44C12.34 11.1 17.99 5.93 18.1 5.46C18.12 5.4 18.13 5.18 18 5.07C17.87 4.95 17.68 4.99 17.54 5.02C17.35 5.07 14.24 7.13 8.22 11.22C7.34 11.83 6.54 12.13 5.82 12.11C5.04 12.09 3.52 11.66 2.39 11.29C1.01 10.84 -0.1 10.6 0 9.83C0.05 9.43 0.6 9.02 1.64 8.6Z" fill="#FAFAFA" fill-opacity="1.000000" fill-rule="nonzero"/>
</svg>
