<svg width="24.000000" height="24.000000" viewBox="0 0 24 24" fill="none" xmlns="http://www.w3.org/2000/svg" xmlns:xlink="http://www.w3.org/1999/xlink">
	<desc>
			Created with Pixso.
	</desc>
	<defs>
		<clipPath id="clip23_134">
			<rect id="message" width="24.000000" height="24.000000" fill="white" fill-opacity="0"/>
		</clipPath>
	</defs>
	<g clip-path="url(#clip23_134)">
		<path id="Vector" d="M9.9436 3.25L14.0564 3.25C15.8942 3.25 17.3499 3.25 18.489 3.40308C19.6615 3.56079 20.6104 3.89282 21.3588 4.64136C22.1072 5.38965 22.4392 6.33862 22.5969 7.51099C22.75 8.65015 22.75 10.1057 22.75 11.9436L22.75 12.0564C22.75 13.8943 22.75 15.3499 22.5969 16.489C22.4392 17.6614 22.1072 18.6104 21.3588 19.3586C20.6104 20.1072 19.6615 20.4392 18.489 20.5969C17.3499 20.75 15.8942 20.75 14.0564 20.75L9.9436 20.75C8.10583 20.75 6.65015 20.75 5.51099 20.5969C4.3385 20.4392 3.38965 20.1072 2.64124 19.3586C1.89282 18.6104 1.56079 17.6614 1.40308 16.489C1.25 15.3499 1.25 13.8943 1.25 12.0564L1.25 11.9436C1.25 10.1057 1.25 8.65015 1.40308 7.51099C1.56079 6.33862 1.89282 5.38965 2.64124 4.64136C3.38965 3.89282 4.3385 3.56079 5.51099 3.40308C6.65015 3.25 8.10583 3.25 9.9436 3.25ZM5.71082 4.88965C4.70471 5.02515 4.12512 5.27881 3.7019 5.7019C3.27869 6.125 3.02502 6.70483 2.88977 7.71094C2.75159 8.73853 2.75 10.0933 2.75 12C2.75 13.9067 2.75159 15.2615 2.88977 16.2891C3.02502 17.2952 3.27869 17.875 3.7019 18.2981C4.12512 18.7212 4.70471 18.9751 5.71082 19.1104C6.73853 19.2483 8.09314 19.25 10 19.25L14 19.25C15.9069 19.25 17.2615 19.2483 18.2892 19.1104C19.2953 18.9751 19.8749 18.7212 20.2981 18.2981C20.7213 17.875 20.975 17.2952 21.1102 16.2891C21.2484 15.2615 21.25 13.9067 21.25 12C21.25 10.0933 21.2484 8.73853 21.1102 7.71094C20.975 6.70483 20.7213 6.125 20.2981 5.7019C19.8749 5.27881 19.2953 5.02515 18.2892 4.88965C17.2615 4.75171 15.9069 4.75 14 4.75L10 4.75C8.09314 4.75 6.73853 4.75171 5.71082 4.88965ZM5.42383 7.51978C5.68896 7.20166 6.16199 7.15869 6.4801 7.42383L8.63904 9.2229C9.57202 10.0005 10.2197 10.5383 10.7666 10.8901C11.2959 11.2305 11.6549 11.345 12 11.345C12.3451 11.345 12.7041 11.2305 13.2334 10.8901C13.7803 10.5383 14.428 10.0005 15.361 9.2229L17.5199 7.42383C17.838 7.15869 18.311 7.20166 18.5762 7.51978C18.8413 7.83813 18.7983 8.31104 18.4801 8.57617L16.2837 10.4065C15.3973 11.1453 14.6788 11.7439 14.0448 12.1516C13.3843 12.5764 12.7411 12.845 12 12.845C11.2589 12.845 10.6157 12.5764 9.9552 12.1516C9.32117 11.7439 8.60266 11.1453 7.71631 10.4065L5.5199 8.57617C5.20166 8.31104 5.15869 7.83813 5.42383 7.51978Z" fill="#AFB2BF" fill-opacity="1.000000" fill-rule="evenodd"/>
	</g>
</svg>
