<svg width="24.000000" height="24.000000" viewBox="0 0 24 24" fill="none" xmlns="http://www.w3.org/2000/svg" xmlns:xlink="http://www.w3.org/1999/xlink">
	<desc>
			Created with Pixso.
	</desc>
	<defs>
		<clipPath id="clip23_143">
			<rect id="telegram" width="24.000000" height="24.000000" fill="white" fill-opacity="0"/>
		</clipPath>
	</defs>
	<g clip-path="url(#clip23_143)">
		<path id="Vector" d="M18.1437 3.63086C16.9738 3.83887 15.3964 4.36255 13.1827 5.10059L8.17139 6.771C6.39136 7.36426 5.10205 7.79468 4.19141 8.18188C3.23938 8.58691 2.90076 8.86914 2.79077 9.05835C2.4519 9.64111 2.4519 10.3608 2.79077 10.9438C2.90076 11.1331 3.23938 11.4153 4.19141 11.8201C5.10205 12.2075 6.39136 12.6379 8.17139 13.2312C8.19946 13.2405 8.22729 13.2498 8.25464 13.259C8.63428 13.3853 8.948 13.4895 9.22192 13.6328L14.5454 8.36816C14.847 8.06982 15.3335 8.07251 15.6318 8.37402C15.9303 8.67578 15.9276 9.16235 15.6259 9.46069L10.3259 14.7021C10.4912 14.9939 10.603 15.3303 10.7411 15.7454C10.7502 15.7727 10.7594 15.8005 10.7688 15.8286C11.3622 17.6086 11.7926 18.8979 12.1798 19.8086C12.5848 20.7605 12.8671 21.0994 13.0563 21.2092C13.639 21.5481 14.3588 21.5481 14.9417 21.2092C15.1309 21.0994 15.4131 20.7605 15.818 19.8086C16.2053 18.8979 16.6357 17.6086 17.229 15.8286L18.8995 10.8174C19.6373 8.60352 20.161 7.02637 20.3691 5.8562C20.5782 4.68066 20.4185 4.1814 20.1185 3.88135C19.8186 3.58154 19.3192 3.42163 18.1437 3.63086ZM17.8746 2.11792C19.1768 1.88623 20.3496 1.93945 21.2051 2.79492C22.0605 3.65039 22.1136 4.82324 21.8821 6.12549C21.6517 7.41968 21.0903 9.10425 20.3794 11.2366L18.6746 16.3516C18.0961 18.0869 17.6466 19.4353 17.2321 20.4099C16.8322 21.3501 16.3882 22.1458 15.7139 22.5376C14.6537 23.1541 13.3442 23.1541 12.2839 22.5376C11.6096 22.1458 11.1656 21.3501 10.7659 20.4099C10.3513 19.4353 9.90186 18.0869 9.32336 16.3516L9.31104 16.3145C9.1084 15.7065 9.04663 15.5415 8.95911 15.4109C8.86108 15.2646 8.73547 15.1389 8.58911 15.041C8.45837 14.9534 8.29346 14.8916 7.68555 14.689L7.64844 14.6765C5.91309 14.0981 4.56458 13.6487 3.59009 13.2341C2.6499 12.8342 1.85425 12.3904 1.46228 11.7161C0.845947 10.6558 0.845947 9.34644 1.46228 8.28613C1.85425 7.61182 2.65002 7.16772 3.59009 6.76807C4.5647 6.35352 5.91309 5.90405 7.64856 5.32544L12.7633 3.62061C14.8959 2.90967 16.5802 2.34814 17.8746 2.11792Z" fill="#AFB2BF" fill-opacity="1.000000" fill-rule="evenodd"/>
	</g>
</svg>
