<svg width="24.000000" height="24.000000" viewBox="0 0 24 24" fill="none" xmlns="http://www.w3.org/2000/svg" xmlns:xlink="http://www.w3.org/1999/xlink">
	<desc>
			Created with Pixso.
	</desc>
	<defs>
		<clipPath id="clip23_148">
			<rect id="topic" width="24.000000" height="24.000000" fill="white" fill-opacity="0"/>
		</clipPath>
	</defs>
	<g clip-path="url(#clip23_148)">
		<path id="Vector" d="M13.5393 1.25L10.4607 1.25C8.8573 1.25 7.60034 1.25 6.59607 1.34546C5.57251 1.44287 4.7345 1.64453 3.99561 2.09741C3.22192 2.57153 2.57141 3.22192 2.09729 3.99561C1.64453 4.73438 1.44275 5.57251 1.34546 6.59619C1.25 7.60034 1.25 8.85718 1.25 10.4607L1.25 11.5278C1.25 12.6692 1.25 13.564 1.29932 14.2869C1.34949 15.0222 1.45325 15.6343 1.68774 16.2004C2.27124 17.6094 3.39062 18.7288 4.79956 19.3123C5.60449 19.6458 6.52136 19.7197 7.77661 19.7415C8.2157 19.749 8.4939 19.7544 8.70593 19.7778C8.90393 19.7998 8.98083 19.832 9.02576 19.8582C9.07312 19.8857 9.1377 19.936 9.24988 20.0898C9.37122 20.2563 9.5083 20.4866 9.72583 20.8538L10.2679 21.7698C11.0415 23.0767 12.9585 23.0767 13.7321 21.7698L14.2742 20.8538C14.4916 20.4866 14.6288 20.2563 14.7501 20.0898C14.8622 19.936 14.9269 19.8857 14.9742 19.8582C15.0192 19.832 15.0959 19.7998 15.2941 19.7778C15.5061 19.7544 15.7842 19.749 16.2233 19.7415C17.4786 19.7197 18.3955 19.6458 19.2004 19.3123C20.6094 18.7288 21.7288 17.6094 22.3123 16.2004C22.5468 15.6343 22.6505 15.0222 22.7007 14.2869C22.75 13.564 22.75 12.6692 22.75 11.5281L22.75 10.4607C22.75 8.85718 22.75 7.60034 22.6545 6.59619C22.5573 5.57251 22.3555 4.73438 21.9027 3.99561C21.4286 3.22192 20.7781 2.57153 20.0044 2.09741C19.2655 1.64453 18.4275 1.44287 17.4039 1.34546C16.3997 1.25 15.1427 1.25 13.5393 1.25ZM4.77942 3.37622C5.24292 3.09229 5.82434 2.92554 6.73804 2.83862C7.66296 2.75073 8.84875 2.75 10.5 2.75L13.5 2.75C15.1512 2.75 16.337 2.75073 17.262 2.83862C18.1757 2.92554 18.7571 3.09229 19.2206 3.37622C19.7925 3.72681 20.2733 4.20752 20.6238 4.7793C20.9077 5.24292 21.0743 5.82422 21.1613 6.73804C21.2493 7.66309 21.25 8.84888 21.25 10.5L21.25 11.5C21.25 12.675 21.2496 13.5188 21.2042 14.1848C21.1592 14.8438 21.0726 15.2737 20.9265 15.6265C20.4951 16.6677 19.6677 17.4951 18.6265 17.9265C18.1107 18.1401 17.4529 18.22 16.1975 18.2415L16.1656 18.2422C15.7677 18.249 15.4188 18.2549 15.129 18.2871C14.8175 18.3215 14.5128 18.3914 14.2201 18.5615C13.9298 18.7305 13.7205 18.9558 13.5378 19.2063C13.3693 19.4377 13.1959 19.7307 12.9996 20.0623L12.4413 21.0056C12.2485 21.3313 11.7515 21.3313 11.5587 21.0056L11.0004 20.0623C10.8041 19.7307 10.6307 19.4377 10.462 19.2063C10.2795 18.9558 10.0702 18.7305 9.77991 18.5615C9.48706 18.3914 9.1825 18.3215 8.87097 18.2871C8.58105 18.2549 8.2323 18.249 7.83435 18.2422L7.80249 18.2415C6.54712 18.22 5.88928 18.1401 5.37354 17.9265C4.33228 17.4951 3.50488 16.6677 3.07349 15.6265C2.92737 15.2737 2.84082 14.8438 2.79578 14.1848C2.75037 13.5188 2.75 12.675 2.75 11.5L2.75 10.5C2.75 8.84888 2.75073 7.66309 2.83875 6.73804C2.92566 5.82422 3.09229 5.24292 3.37622 4.7793C3.72668 4.20752 4.20752 3.72681 4.77942 3.37622ZM8 12C8.55225 12 9 11.5522 9 11C9 10.4478 8.55225 10 8 10C7.44775 10 7 10.4478 7 11C7 11.5522 7.44775 12 8 12ZM13 11C13 11.5522 12.5522 12 12 12C11.4478 12 11 11.5522 11 11C11 10.4478 11.4478 10 12 10C12.5522 10 13 10.4478 13 11ZM16 12C16.5522 12 17 11.5522 17 11C17 10.4478 16.5522 10 16 10C15.4478 10 15 10.4478 15 11C15 11.5522 15.4478 12 16 12Z" fill="#AFB2BF" fill-opacity="1.000000" fill-rule="evenodd"/>
	</g>
</svg>
