<svg width="39.000000" height="33.000000" viewBox="0 0 39 33" fill="none" xmlns="http://www.w3.org/2000/svg" xmlns:xlink="http://www.w3.org/1999/xlink">
	<desc>
			Created with Pixso.
	</desc>
	<defs>
		<clipPath id="clip11_146">
			<rect id="IMAGE" width="39.000000" height="33.000000" fill="white" fill-opacity="0"/>
		</clipPath>
	</defs>
	<g clip-path="url(#clip11_146)">
		<path id="Vector" d="M0.84 11.73C0.38 11.73 0 12.11 0 12.58L0 14.36C0 14.83 0.38 15.22 0.84 15.22C1.31 15.22 1.69 14.84 1.69 14.36L1.69 12.58C1.69 12.11 1.31 11.73 0.84 11.73ZM3.5 23.29C3.5 25.48 5.19 26.81 7.1 26.81C7.87 26.81 8.45 26.63 8.66 26.57L8.66 24.74C8.59 24.78 8.03 25.1 7.23 25.1C6.09 25.1 5.36 24.3 5.36 23.29C5.36 22.27 6.12 21.47 7.23 21.47C8.04 21.47 8.59 21.8 8.66 21.83L8.66 20.01C8.5 19.96 7.91 19.77 7.1 19.77C5.03 19.77 3.5 21.26 3.5 23.29ZM10.16 6.18C9.86 6.18 9.61 6.33 9.45 6.56C9.36 6.69 9.31 6.86 9.31 7.03L9.31 16.06C9.31 16.24 9.36 16.4 9.45 16.54C9.61 16.76 9.86 16.91 10.16 16.91C10.45 16.91 10.71 16.76 10.86 16.54C10.95 16.4 11 16.24 11 16.06L11 7.03C11 6.86 10.95 6.69 10.86 6.56C10.71 6.33 10.45 6.18 10.16 6.18ZM24.12 15.22C24.59 15.22 24.97 14.84 24.97 14.36L24.97 10.24C24.97 9.77 24.59 9.39 24.12 9.39C23.65 9.39 23.27 9.77 23.27 10.24L23.27 14.36C23.27 14.84 23.65 15.22 24.12 15.22ZM31.86 19.77C29.78 19.77 28.28 21.34 28.28 23.29C28.28 25.23 29.78 26.81 31.86 26.81C33.94 26.81 35.43 25.23 35.43 23.29C35.43 21.34 33.94 19.77 31.86 19.77ZM31.86 25.08C30.85 25.08 30.09 24.28 30.09 23.29C30.09 22.3 30.85 21.5 31.86 21.5C32.87 21.5 33.62 22.3 33.62 23.29C33.62 24.27 32.87 25.08 31.86 25.08ZM11.01 26.69L12.72 26.69L12.72 19.89L11.01 19.89L11.01 26.69ZM5.5 15.22C5.97 15.22 6.35 14.84 6.35 14.36L6.35 10.24C6.35 9.77 5.97 9.39 5.5 9.39C5.03 9.39 4.65 9.77 4.65 10.24L4.65 14.36C4.65 14.84 5.03 15.22 5.5 15.22ZM33.44 15.22C33.9 15.22 34.28 14.84 34.28 14.36L34.28 10.24C34.28 9.77 33.9 9.39 33.44 9.39C32.97 9.39 32.59 9.77 32.59 10.24L32.59 14.36C32.59 14.84 32.97 15.22 33.44 15.22ZM28.78 16.91C29.07 16.91 29.33 16.76 29.48 16.54C29.57 16.4 29.63 16.24 29.63 16.06L29.63 7.03C29.63 6.86 29.57 6.69 29.48 6.56C29.33 6.33 29.07 6.18 28.78 6.18C28.49 6.18 28.23 6.33 28.08 6.56C27.99 6.69 27.93 6.86 27.93 7.03L27.93 16.06C27.93 16.24 27.99 16.4 28.08 16.54C28.23 16.76 28.49 16.91 28.78 16.91ZM38.09 11.73C37.63 11.73 37.25 12.11 37.25 12.58L37.25 14.36C37.25 14.83 37.63 15.22 38.09 15.22C38.56 15.22 38.94 14.83 38.94 14.36L38.94 12.58C38.94 12.11 38.56 11.73 38.09 11.73ZM21.33 23.29C21.33 25.48 23.01 26.81 24.93 26.81C25.69 26.81 26.27 26.63 26.49 26.56L26.49 24.74C26.41 24.78 25.86 25.1 25.05 25.1C23.91 25.1 23.18 24.3 23.18 23.28C23.18 22.27 23.95 21.47 25.05 21.47C25.87 21.47 26.42 21.8 26.49 21.83L26.49 20.01C26.33 19.96 25.73 19.77 24.93 19.77C22.85 19.77 21.33 21.26 21.33 23.29ZM19.47 11.73C19.47 11.73 19.47 11.73 19.47 11.73C19.47 11.73 19.47 11.73 19.47 11.73C19 11.73 18.62 12.11 18.62 12.58L18.62 14.36C18.62 14.83 19 15.22 19.47 15.22C19.47 15.22 19.47 15.22 19.47 15.22C19.47 15.22 19.47 15.22 19.47 15.22C19.94 15.22 20.32 14.83 20.32 14.36L20.32 12.58C20.32 12.11 19.94 11.73 19.47 11.73ZM15.66 14.36L15.66 10.24C15.66 9.77 15.28 9.39 14.81 9.39C14.35 9.39 13.97 9.77 13.97 10.24L13.97 14.36C13.97 14.84 14.35 15.22 14.81 15.22C15.28 15.22 15.66 14.84 15.66 14.36ZM18.06 22.58L17.59 22.43C17.3 22.34 16.8 22.2 16.8 21.78C16.8 21.46 17.17 21.23 17.86 21.23C18.45 21.23 19.17 21.43 19.19 21.43L19.19 19.98C19.14 19.97 18.36 19.76 17.53 19.76C15.95 19.76 15.01 20.62 15.01 21.89C15.01 23.02 15.8 23.58 16.75 23.88C16.86 23.91 17.01 23.96 17.12 24C17.54 24.13 17.88 24.33 17.88 24.68C17.88 25.06 17.49 25.31 16.64 25.31C15.89 25.31 15.17 25.1 15.02 25.06L15.02 26.62C15.11 26.64 15.96 26.81 16.87 26.81C18.17 26.81 19.67 26.23 19.67 24.53C19.67 23.7 19.16 22.93 18.06 22.58L18.06 22.58Z" fill="#050038" fill-opacity="1.000000" fill-rule="nonzero"/>
	</g>
</svg>
