<svg width="45.000000" height="33.000000" viewBox="0 0 45 33" fill="none" xmlns="http://www.w3.org/2000/svg" xmlns:xlink="http://www.w3.org/1999/xlink">
	<desc>
			Created with Pixso.
	</desc>
	<defs>
		<clipPath id="clip11_148">
			<rect id="IMAGE" width="45.000000" height="33.000000" fill="white" fill-opacity="0"/>
		</clipPath>
	</defs>
	<g clip-path="url(#clip11_148)">
		<path id="Vector" d="M41.44 20.48C41.44 19.84 41.96 19.32 42.6 19.32C43.24 19.32 43.76 19.84 43.76 20.48C43.76 21.13 43.24 21.65 42.6 21.65C41.96 21.65 41.44 21.13 41.44 20.48Z" fill="#050038" fill-opacity="1.000000" fill-rule="nonzero"/>
		<path id="Vector" d="M4.45 17.39C4.45 16.65 4.3 16.1 4.02 15.74C3.74 15.38 3.31 15.2 2.73 15.2L2.11 15.2L2.11 19.73L2.58 19.73C3.23 19.73 3.7 19.54 4 19.15C4.3 18.77 4.45 18.18 4.45 17.39ZM6.64 17.31C6.64 18.66 6.28 19.7 5.56 20.43C4.84 21.16 3.83 21.52 2.53 21.52L0 21.52L0 13.44L2.71 13.44C3.96 13.44 4.93 13.77 5.62 14.43C6.3 15.1 6.64 16.06 6.64 17.31Z" fill="#050038" fill-opacity="1.000000" fill-rule="nonzero"/>
		<path id="Vector" d="M33.86 19.99C34.13 19.99 34.46 19.92 34.84 19.78L34.84 21.3C34.57 21.42 34.31 21.5 34.06 21.55C33.81 21.61 33.53 21.63 33.2 21.63C32.52 21.63 32.03 21.46 31.73 21.12C31.43 20.77 31.28 20.25 31.28 19.54L31.28 17.05L30.58 17.05L30.58 15.49L31.28 15.49L31.28 13.93L33.32 13.6L33.32 15.49L34.6 15.49L34.6 17.05L33.32 17.05L33.32 19.4C33.32 19.79 33.5 19.99 33.86 19.99Z" fill="#050038" fill-opacity="1.000000" fill-rule="nonzero"/>
		<path id="Vector" d="M37.38 17.76C37.41 17.43 37.5 17.19 37.66 17.03C37.82 16.88 38.02 16.8 38.26 16.8C38.52 16.8 38.72 16.89 38.87 17.06C39.03 17.24 39.11 17.47 39.11 17.76L37.38 17.76ZM40.22 16.1C39.74 15.62 39.06 15.39 38.18 15.39C37.26 15.39 36.55 15.66 36.05 16.2C35.55 16.75 35.3 17.53 35.3 18.55C35.3 19.53 35.57 20.3 36.11 20.83C36.65 21.36 37.4 21.63 38.38 21.63C38.84 21.63 39.25 21.6 39.58 21.53C39.92 21.47 40.24 21.36 40.56 21.19L40.25 19.83C40.02 19.93 39.8 20 39.59 20.05C39.3 20.12 38.97 20.15 38.62 20.15C38.23 20.15 37.92 20.06 37.7 19.86C37.47 19.67 37.35 19.41 37.34 19.07L40.94 19.07L40.94 18.14C40.94 17.25 40.7 16.57 40.22 16.1Z" fill="#050038" fill-opacity="1.000000" fill-rule="nonzero"/>
		<path id="Vector" d="M13.66 21.52L15.68 21.52L15.68 13.4L13.66 13.4L13.66 21.52Z" fill="#050038" fill-opacity="1.000000" fill-rule="nonzero"/>
		<path id="Vector" d="M18.51 18.5C18.51 19.01 18.58 19.41 18.71 19.68C18.84 19.95 19.07 20.09 19.39 20.09C19.7 20.09 19.92 19.95 20.05 19.68C20.18 19.41 20.24 19.01 20.24 18.5C20.24 17.98 20.18 17.59 20.05 17.33C19.91 17.07 19.69 16.94 19.37 16.94C19.07 16.94 18.84 17.07 18.71 17.33C18.58 17.59 18.51 17.98 18.51 18.5ZM22.29 18.5C22.29 19.48 22.04 20.25 21.52 20.8C21.01 21.36 20.29 21.63 19.37 21.63C18.48 21.63 17.77 21.35 17.25 20.78C16.72 20.22 16.46 19.46 16.46 18.5C16.46 17.51 16.72 16.75 17.23 16.2C17.75 15.66 18.47 15.39 19.4 15.39C19.97 15.39 20.48 15.51 20.92 15.76C21.36 16.02 21.7 16.38 21.94 16.85C22.17 17.32 22.29 17.87 22.29 18.5Z" fill="#050038" fill-opacity="1.000000" fill-rule="nonzero"/>
		<path id="Vector" d="M23.09 21.53L25.11 21.53L25.11 18.42L25.11 15.49L23.09 15.49L23.09 21.53Z" fill="#050038" fill-opacity="1.000000" fill-rule="nonzero"/>
		<path id="Vector" d="M23.09 14.76L25.11 14.76L25.11 13.4L23.09 13.4L23.09 14.76Z" fill="#050038" fill-opacity="1.000000" fill-rule="nonzero"/>
		<path id="Vector" d="M29.2 19.99C29.47 19.99 29.79 19.92 30.17 19.78L30.17 21.3C29.9 21.42 29.64 21.5 29.39 21.55C29.15 21.61 28.86 21.63 28.53 21.63C27.85 21.63 27.37 21.46 27.07 21.12C26.77 20.78 26.62 20.25 26.62 19.54L26.62 17.05L25.91 17.05L25.91 15.49L26.62 15.49L26.62 13.95L28.65 13.6L28.65 15.49L29.94 15.49L29.94 17.05L28.65 17.05L28.65 19.4C28.65 19.79 28.83 19.99 29.2 19.99Z" fill="#050038" fill-opacity="1.000000" fill-rule="nonzero"/>
		<path id="Vector" d="M9.32 17.76C9.35 17.43 9.44 17.19 9.6 17.03C9.76 16.88 9.96 16.8 10.2 16.8C10.45 16.8 10.66 16.89 10.81 17.06C10.96 17.24 11.04 17.47 11.05 17.76L9.32 17.76ZM12.16 16.1C11.68 15.62 11 15.39 10.12 15.39C9.2 15.39 8.49 15.66 7.99 16.2C7.49 16.75 7.24 17.53 7.24 18.55C7.24 19.54 7.51 20.3 8.05 20.83C8.59 21.36 9.34 21.63 10.31 21.63C10.78 21.63 11.18 21.6 11.52 21.54C11.86 21.47 12.18 21.36 12.49 21.19L12.18 19.83C11.96 19.93 11.74 20 11.53 20.05C11.24 20.12 10.91 20.15 10.56 20.15C10.17 20.15 9.86 20.06 9.64 19.86C9.41 19.67 9.29 19.41 9.28 19.07L12.88 19.07L12.88 18.14C12.88 17.25 12.64 16.57 12.16 16.1Z" fill="#050038" fill-opacity="1.000000" fill-rule="nonzero"/>
	</g>
</svg>
