<svg width="27.000000" height="33.000000" viewBox="0 0 27 33" fill="none" xmlns="http://www.w3.org/2000/svg" xmlns:xlink="http://www.w3.org/1999/xlink">
	<desc>
			Created with Pixso.
	</desc>
	<defs>
		<clipPath id="clip11_159">
			<rect id="IMAGE" width="27.000000" height="33.000000" fill="white" fill-opacity="0"/>
		</clipPath>
	</defs>
	<g clip-path="url(#clip11_159)">
		<path id="Vector" d="M12.23 18.91L15.5 18.91L15.5 17.8L15.14 17.8C15.14 18.22 14.84 18.54 14.37 18.54L13.87 18.54L13.87 16.87L14.41 16.87L14.41 16.51L12.23 16.51L12.23 16.87L12.78 16.87L12.78 18.54L12.23 18.54L12.23 18.91L12.23 18.91Z" fill="#050038" fill-opacity="1.000000" fill-rule="nonzero"/>
		<path id="Vector" d="M17.08 18.91L18.35 18.91L19.44 16.88L19.98 16.88L19.98 16.51L18.35 16.51L18.35 16.88L18.82 16.88L18.03 18.36L17.23 16.88L17.8 16.88L17.8 16.51L15.44 16.51L15.44 16.88L15.98 16.88L17.08 18.91Z" fill="#050038" fill-opacity="1.000000" fill-rule="nonzero"/>
		<path id="Vector" d="M5.7 16.51L3.33 16.51L3.33 16.88L3.87 16.88L4.98 18.91L6.25 18.91L7.33 16.88L7.88 16.88L7.88 16.51L6.24 16.51L6.24 16.88L6.72 16.88L5.93 18.36L5.13 16.88L5.7 16.88L5.7 16.51Z" fill="#050038" fill-opacity="1.000000" fill-rule="nonzero"/>
		<path id="Vector" d="M8.19 17.71C8.19 18.42 8.75 18.98 9.88 18.98C11 18.98 11.56 18.42 11.56 17.71C11.56 17.01 10.97 16.45 9.87 16.45C8.77 16.45 8.19 17.01 8.19 17.71L8.19 17.71ZM10.46 17.72C10.45 18.15 10.27 18.61 9.86 18.6C9.46 18.6 9.28 18.15 9.29 17.7C9.3 17.23 9.52 16.83 9.89 16.83C10.27 16.84 10.46 17.25 10.46 17.72L10.46 17.72Z" fill="#050038" fill-opacity="1.000000" fill-rule="nonzero"/>
		<path id="Vector" d="M20.29 17.71C20.29 18.42 20.85 18.98 21.98 18.98C23.1 18.98 23.65 18.42 23.65 17.71C23.65 17.01 23.07 16.45 21.97 16.45C20.87 16.45 20.29 17.01 20.29 17.71ZM21.99 16.83C22.36 16.84 22.56 17.25 22.55 17.72C22.55 18.15 22.37 18.61 21.96 18.6C21.56 18.6 21.38 18.15 21.39 17.7C21.4 17.23 21.62 16.83 21.99 16.83Z" fill="#050038" fill-opacity="1.000000" fill-rule="nonzero"/>
		<path id="Vector" d="M24.6 10.06L23.23 11.45C24.41 13.3 25.09 15.5 25.09 17.87C25.09 24.39 19.9 29.68 13.5 29.68C7.09 29.68 1.9 24.39 1.9 17.87C1.9 11.35 7.09 6.06 13.5 6.06C15.82 6.06 17.99 6.76 19.81 7.96L21.18 6.56C19 5.02 16.35 4.12 13.5 4.12C6.04 4.12 0 10.28 0 17.87C0 25.46 6.04 31.62 13.5 31.62C20.95 31.62 27 25.46 27 17.87C27 14.97 26.11 12.28 24.61 10.06L24.6 10.06Z" fill="#050038" fill-opacity="1.000000" fill-rule="nonzero"/>
		<path id="Vector" d="M20.28 4.66L20.28 5.05C21.1 5.5 21.87 6.03 22.59 6.63L20.66 8.59C21.39 9.17 22.04 9.84 22.61 10.58L24.54 8.62C25.13 9.35 25.65 10.13 26.09 10.95L26.46 10.95L26.46 4.66L20.28 4.66L20.28 4.66Z" fill="#050038" fill-opacity="1.000000" fill-rule="nonzero"/>
	</g>
</svg>
