<svg width="60.000000" height="33.000000" viewBox="0 0 60 33" fill="none" xmlns="http://www.w3.org/2000/svg" xmlns:xlink="http://www.w3.org/1999/xlink">
	<desc>
			Created with Pixso.
	</desc>
	<defs>
		<clipPath id="clip11_131">
			<rect id="IMAGE" width="60.000000" height="33.000000" fill="white" fill-opacity="0"/>
		</clipPath>
	</defs>
	<g clip-path="url(#clip11_131)">
		<path id="Vector" d="M34.63 18.02C34.63 16.59 34.02 15.33 31.98 15.33C30.93 15.33 30.09 15.63 29.64 15.9L29.97 17.04C30.39 16.78 31.05 16.56 31.68 16.56C32.72 16.56 32.89 17.15 32.89 17.53L32.89 17.62C30.62 17.62 29.19 18.4 29.19 20.01C29.19 20.99 29.92 21.91 31.19 21.91C31.96 21.91 32.62 21.59 33.01 21.1L33.05 21.1C33.05 21.1 33.3 22.18 34.73 21.77C34.66 21.31 34.63 20.83 34.63 20.25L34.63 18.02ZM32.94 19.52C32.94 19.64 32.93 19.76 32.9 19.86C32.77 20.3 32.32 20.66 31.76 20.66C31.29 20.66 30.92 20.39 30.92 19.83C30.92 18.97 31.86 18.73 32.94 18.74L32.94 19.52Z" fill="#050038" fill-opacity="1.000000" fill-rule="nonzero"/>
		<path id="Vector" d="M0 13.39C0 13.39 1.47 19.49 1.71 20.47C1.98 21.63 2.48 22.05 3.91 21.77L4.83 17.99C5.07 17.05 5.23 16.38 5.38 15.43L5.4 15.43C5.51 16.39 5.66 17.05 5.85 17.99C5.85 17.99 6.23 19.71 6.42 20.61C6.61 21.51 7.15 22.08 8.55 21.77L10.75 13.39L8.97 13.39L8.22 17.01C8.02 18.06 7.84 18.89 7.7 19.85L7.67 19.85C7.54 18.9 7.38 18.11 7.17 17.08L6.39 13.39L4.54 13.39L3.71 16.99C3.47 18.08 3.25 18.96 3.11 19.9L3.08 19.9C2.94 19.02 2.74 17.91 2.54 16.85C2.54 16.85 2.04 14.28 1.87 13.39L0 13.39Z" fill="#050038" fill-opacity="1.000000" fill-rule="nonzero"/>
		<path id="Vector" d="M15.69 18.02C15.69 16.59 15.09 15.33 13.04 15.33C11.99 15.33 11.16 15.63 10.71 15.9L11.04 17.04C11.45 16.78 12.12 16.56 12.74 16.56C13.78 16.56 13.95 17.15 13.95 17.53L13.95 17.62C11.69 17.62 10.26 18.4 10.26 20.01C10.26 20.99 10.99 21.91 12.25 21.91C13.03 21.91 13.68 21.59 14.07 21.1L14.11 21.1C14.11 21.1 14.37 22.18 15.79 21.77C15.72 21.31 15.69 20.83 15.69 20.25L15.69 18.02ZM14.01 19.52C14.01 19.64 14 19.76 13.96 19.86C13.83 20.3 13.38 20.66 12.82 20.66C12.35 20.66 11.98 20.39 11.98 19.83C11.98 18.97 12.93 18.73 14.01 18.74L14.01 19.52Z" fill="#050038" fill-opacity="1.000000" fill-rule="nonzero"/>
		<path id="Vector" d="M16.62 13.39L16.62 21.77L18.3 21.77L18.3 19.99L18.3 13.39L16.62 13.39Z" fill="#050038" fill-opacity="1.000000" fill-rule="nonzero"/>
		<path id="Vector" d="M39.81 13.39L39.81 19.57C39.81 20.42 39.97 21.02 40.31 21.38C40.61 21.7 41.11 21.91 41.69 21.91C42.19 21.91 42.68 21.81 42.92 21.73L42.9 20.4C42.72 20.44 42.52 20.47 42.25 20.47C41.67 20.47 41.48 20.1 41.48 19.34L41.48 16.97L42.96 16.97L42.96 15.37L41.48 15.37L41.48 13.39L39.81 13.39Z" fill="#050038" fill-opacity="1.000000" fill-rule="nonzero"/>
		<path id="Vector" d="M35.45 15.47L35.45 21.77L37.19 21.77L37.19 18.55C37.19 18.37 37.21 18.22 37.23 18.08C37.36 17.4 37.87 16.97 38.61 16.97C38.82 16.97 38.96 17 39.11 17.02L39.11 15.37C38.98 15.35 38.89 15.33 38.73 15.33C38.08 15.33 37.34 15.75 37.03 16.66L36.98 16.66L36.98 15.47L35.45 15.47Z" fill="#050038" fill-opacity="1.000000" fill-rule="nonzero"/>
		<path id="Vector" d="M19.29 15.47L19.29 21.77L20.99 21.77L20.99 18.07C20.99 17.9 21.01 17.72 21.07 17.56C21.21 17.19 21.55 16.76 22.1 16.76C22.78 16.76 23.11 17.34 23.11 18.18L23.11 21.77L24.81 21.77L24.81 18.03C24.81 17.87 24.83 17.67 24.88 17.52C25.01 17.1 25.38 16.76 25.9 16.76C26.59 16.76 26.93 17.33 26.93 18.32L26.93 21.77L28.62 21.77L28.62 18.06C28.62 16.11 27.64 15.33 26.52 15.33C26.03 15.33 25.64 15.46 25.29 15.67C24.99 15.86 24.73 16.12 24.5 16.46L24.47 16.46C24.2 15.78 23.57 15.33 22.75 15.33C21.69 15.33 21.21 15.87 20.93 16.33L20.9 16.33L20.9 15.47L19.29 15.47Z" fill="#050038" fill-opacity="1.000000" fill-rule="nonzero"/>
		<path id="Vector" d="M52.09 15.19C52.43 15.19 52.71 15.02 52.75 14.79L53.08 11.01C53.08 10.64 52.64 10.33 52.09 10.33C51.55 10.33 51.11 10.64 51.11 11.01L51.45 14.79C51.48 15.02 51.76 15.19 52.09 15.19Z" fill="#050038" fill-opacity="1.000000" fill-rule="nonzero"/>
		<path id="Vector" d="M50.06 16.37C50.23 16.08 50.22 15.75 50.04 15.61L46.95 13.43C46.63 13.24 46.15 13.46 45.88 13.94C45.6 14.42 45.66 14.95 45.97 15.14L49.39 16.73C49.61 16.82 49.9 16.66 50.06 16.37L50.06 16.37Z" fill="#050038" fill-opacity="1.000000" fill-rule="nonzero"/>
		<path id="Vector" d="M54.12 16.37C54.3 16.66 54.58 16.82 54.8 16.74L58.22 15.14C58.53 14.95 58.58 14.42 58.31 13.94C58.04 13.47 57.56 13.24 57.23 13.43L54.15 15.6C53.97 15.75 53.96 16.08 54.13 16.37L54.12 16.37Z" fill="#050038" fill-opacity="1.000000" fill-rule="nonzero"/>
		<path id="Vector" d="M52.09 19.91C52.43 19.91 52.71 20.09 52.75 20.31L53.08 24.09C53.08 24.47 52.64 24.77 52.09 24.77C51.55 24.77 51.11 24.47 51.11 24.09L51.45 20.31C51.48 20.09 51.76 19.91 52.09 19.91Z" fill="#050038" fill-opacity="1.000000" fill-rule="nonzero"/>
		<path id="Vector" d="M54.12 18.73C54.3 18.44 54.58 18.28 54.8 18.37L58.22 19.97C58.53 20.15 58.58 20.69 58.31 21.16C58.04 21.64 57.56 21.86 57.23 21.68L54.15 19.5C53.97 19.35 53.96 19.02 54.13 18.73L54.12 18.73Z" fill="#050038" fill-opacity="1.000000" fill-rule="nonzero"/>
		<path id="Vector" d="M50.06 18.73C50.23 19.02 50.22 19.35 50.04 19.5L46.95 21.67C46.63 21.86 46.15 21.64 45.88 21.16C45.6 20.69 45.66 20.15 45.97 19.97L49.39 18.37C49.61 18.28 49.9 18.44 50.06 18.73Z" fill="#050038" fill-opacity="1.000000" fill-rule="nonzero"/>
		<path id="Vector" d="M59.22 21.35L59.26 21.35C59.32 21.35 59.34 21.36 59.35 21.41C59.36 21.46 59.37 21.5 59.38 21.51L59.49 21.51C59.48 21.5 59.47 21.47 59.46 21.41C59.45 21.35 59.42 21.32 59.38 21.31L59.38 21.3C59.43 21.29 59.47 21.25 59.47 21.2C59.47 21.16 59.45 21.13 59.43 21.11C59.39 21.09 59.36 21.08 59.28 21.08C59.21 21.08 59.16 21.08 59.12 21.09L59.12 21.51L59.22 21.51L59.22 21.35ZM59.22 21.16L59.27 21.15C59.33 21.15 59.36 21.18 59.36 21.21C59.36 21.26 59.32 21.28 59.26 21.28L59.22 21.28L59.22 21.16ZM59.28 20.87C59.04 20.87 58.85 21.06 58.85 21.29C58.85 21.53 59.04 21.72 59.28 21.72C59.53 21.72 59.71 21.53 59.71 21.29C59.71 21.06 59.53 20.87 59.28 20.87ZM59.28 20.96C59.47 20.96 59.6 21.11 59.6 21.29C59.6 21.48 59.47 21.63 59.28 21.63C59.1 21.63 58.96 21.48 58.96 21.29C58.96 21.11 59.1 20.96 59.28 20.96L59.28 20.96Z" fill="#050038" fill-opacity="1.000000" fill-rule="nonzero"/>
	</g>
</svg>
