<svg width="80.000000" height="86.000000" viewBox="0 0 80 86" fill="none" xmlns="http://www.w3.org/2000/svg" xmlns:xlink="http://www.w3.org/1999/xlink">
	<desc>
			Created with Pixso.
	</desc>
	<defs>
		<clipPath id="clip1_1024">
			<rect id="security 1" width="80.000000" height="86.000000" fill="white" fill-opacity="0"/>
		</clipPath>
	</defs>
	<rect id="security 1" width="80.000000" height="86.000000" fill="#FFFFFF" fill-opacity="0"/>
	<g clip-path="url(#clip1_1024)">
		<path id="Vector" d="M77.3 59.26C74.36 57.81 71.52 56.16 68.59 54.68C67.72 54.24 67.42 53.75 67.43 52.78C67.48 47.24 67.46 41.7 67.45 36.16C67.44 33.39 65.41 30.02 61.43 30.27C61.16 30.28 60.89 30.27 60.57 30.27C60.57 29.11 60.62 28.08 60.55 27.05C60.43 25.18 60.46 23.27 60.05 21.46C57.56 10.67 50.92 3.47 40.01 0.86C29.11 -1.76 19.87 1.64 12.72 10.15C8.76 14.86 6.95 20.41 6.92 26.53C6.91 27.75 6.92 28.97 6.92 30.27C6.41 30.27 5.99 30.27 5.57 30.27C3.66 30.27 2.2 31.11 1.13 32.65C0.37 33.74 0.03 34.97 0.02 36.29C0.01 39.19 0.01 58.31 0.02 62.8C0 66.57 -0.04 70.34 0.07 74.11C0.17 77.69 2.55 79.79 6.16 79.79C22.98 79.79 39.81 79.8 56.63 79.78C57.25 79.78 57.65 79.95 58.05 80.45C59.95 82.82 62.2 84.78 65.06 86L66.43 86C67.41 85.45 68.44 84.98 69.35 84.34C72.45 82.17 74.65 79.23 76.45 75.98C78.56 72.2 79.84 68.2 79.99 63.85C80.06 61.72 79.3 60.25 77.3 59.26L77.3 59.26ZM21.42 6.96C29.79 1.87 38.49 2.02 46.71 7.37C54.93 12.74 57.8 20.73 57.03 30.23L52.31 30.23C52.31 28.49 52.41 26.82 52.3 25.15C51.64 15.91 43.92 8.47 34.68 8.11C25.09 7.74 16.78 14.38 15.32 23.62C15.15 24.67 15.14 25.74 15.11 26.8C15.07 27.92 15.1 29.03 15.1 30.21L10.41 30.21C9.68 20.41 12.73 12.24 21.42 6.96L21.42 6.96ZM48.79 30.24L18.65 30.24C17.21 20.06 23.25 12.7 31.79 11.64C40.26 10.6 47.44 16.02 48.74 24.32C49.04 26.23 48.78 28.22 48.78 30.24L48.79 30.24ZM54.44 76.41C38.21 76.41 21.99 76.41 5.76 76.42C4.76 76.42 4.09 76 3.79 75.14C3.57 74.53 3.48 73.84 3.48 73.18C3.45 69.61 3.47 66.03 3.46 62.46C3.47 57.58 3.46 39.56 3.46 36.94C3.46 36.55 3.46 36.15 3.51 35.77C3.69 34.39 4.52 33.65 5.88 33.65C24.46 33.65 43.05 33.65 61.63 33.65C62.77 33.65 63.46 34.09 63.8 35.16C63.96 35.68 64.02 36.26 64.02 36.81C64.04 42.27 64.02 47.72 64.05 53.18C64.05 53.81 63.89 54.16 63.29 54.47C60.25 56.04 57.27 57.75 54.2 59.25C52.12 60.26 51.37 61.81 51.48 63.99C51.62 66.64 52.09 69.21 53.05 71.68C53.67 73.26 54.41 74.79 55.13 76.41L54.44 76.41L54.44 76.41ZM76.56 63.87C76.22 69.45 74.12 74.02 70.91 78.15C69.67 79.73 68.22 81.09 66.5 82.19C65.94 82.55 65.52 82.52 64.97 82.17C61.96 80.28 59.87 77.59 58.16 74.59C56.25 71.22 55.02 67.66 54.93 63.76C54.92 62.98 55.17 62.57 55.87 62.21C58.96 60.62 62.03 58.98 65.08 57.32C65.57 57.06 65.93 57.06 66.41 57.32C69.34 58.91 72.27 60.5 75.25 62.01C76.22 62.51 76.87 63.02 76.56 63.87Z" fill="#357EFE" fill-opacity="1.000000" fill-rule="nonzero"/>
		<path id="Vector" d="M27.37 54.92C31.5 51.2 30.91 45.63 27.91 42.51C24.73 39.21 19.41 38.9 15.89 41.88C14.21 43.3 13.18 45.1 12.9 47.27C12.5 50.38 13.58 52.96 15.94 55.09C15.67 55.25 15.48 55.37 15.3 55.49C11.62 57.82 9.39 61.05 9.05 65.42C8.84 68.1 10.72 70.21 13.42 70.23C18.85 70.26 24.27 70.26 29.69 70.23C32.25 70.22 34.07 68.34 34.06 65.84C34.05 63.13 33.16 60.7 31.4 58.67C30.22 57.31 28.75 56.18 27.38 54.92L27.37 54.92ZM21.57 43.19C24.52 43.2 26.9 45.6 26.87 48.52C26.84 51.38 24.39 53.73 21.49 53.68C18.55 53.63 16.24 51.3 16.25 48.4C16.27 45.51 18.66 43.18 21.57 43.19ZM29.35 66.87C26.74 66.87 24.12 66.87 21.51 66.87C18.96 66.87 16.4 66.87 13.85 66.87C12.7 66.87 12.45 66.58 12.51 65.46C12.7 61.87 15.74 58.34 19.5 57.35C22.99 56.42 26.9 58.04 29.13 61.33C30 62.61 30.54 64 30.62 65.55C30.67 66.55 30.36 66.87 29.35 66.87L29.35 66.87Z" fill="#357EFE" fill-opacity="1.000000" fill-rule="nonzero"/>
		<path id="Vector" d="M38.19 48.23C40.63 48.23 43.07 48.23 45.52 48.23C47.93 48.23 50.34 48.23 52.76 48.23C54.04 48.22 54.84 47.55 54.82 46.51C54.8 45.5 54.02 44.86 52.78 44.86C47.92 44.86 43.07 44.86 38.21 44.86C36.95 44.86 36.22 45.48 36.21 46.53C36.21 47.59 36.94 48.22 38.19 48.23Z" fill="#357EFE" fill-opacity="1.000000" fill-rule="nonzero"/>
		<path id="Vector" d="M48.11 53.93C44.8 53.92 41.48 53.92 38.16 53.93C36.92 53.93 36.19 54.58 36.21 55.64C36.23 56.65 36.95 57.28 38.14 57.29C39.82 57.3 41.49 57.29 43.16 57.29C44.8 57.29 46.45 57.3 48.09 57.29C49.35 57.28 50.08 56.67 50.09 55.62C50.09 54.56 49.36 53.93 48.11 53.93Z" fill="#357EFE" fill-opacity="1.000000" fill-rule="nonzero"/>
		<path id="Vector" d="M69.42 65.47C69.17 65.7 68.95 65.96 68.7 66.19C67.27 67.5 65.84 68.82 64.34 70.2C64.2 70.08 63.96 69.85 63.71 69.62C63.46 69.39 63.22 69.15 62.96 68.93C62.09 68.18 61.07 68.18 60.39 68.93C59.73 69.66 59.8 70.62 60.61 71.39C61.49 72.23 62.38 73.05 63.29 73.86C64.22 74.68 65.08 74.65 65.98 73.77C66.65 73.12 67.3 72.45 67.95 71.79C69.26 70.46 70.58 69.15 71.86 67.81C72.59 67.05 72.55 66.07 71.86 65.41C71.18 64.75 70.18 64.77 69.42 65.47Z" fill="#357EFE" fill-opacity="1.000000" fill-rule="nonzero"/>
	</g>
</svg>
