<svg width="80.000000" height="80.000000" viewBox="0 0 80 80" fill="none" xmlns="http://www.w3.org/2000/svg" xmlns:xlink="http://www.w3.org/1999/xlink">
	<desc>
			Created with Pixso.
	</desc>
	<defs>
		<clipPath id="clip1_1012">
			<rect id="servers 1" width="80.000000" height="80.000000" fill="white" fill-opacity="0"/>
		</clipPath>
	</defs>
	<rect id="servers 1" width="80.000000" height="80.000000" fill="#FFFFFF" fill-opacity="0"/>
	<g clip-path="url(#clip1_1012)">
		<path id="Vector" d="M0 23.91C0.49 21.54 1.88 19.6 3.12 17.6C5.85 13.2 8.62 8.83 11.32 4.41C13.15 1.41 15.77 -0.01 19.28 3.05e-5C33.08 0.02 46.87 0.02 60.66 3.05e-5C64.17 -0.01 66.79 1.41 68.63 4.41C71.77 9.53 74.95 14.63 78.16 19.71C79.39 21.66 80.07 23.72 79.97 26.05C79.89 27.74 79.93 29.43 79.96 31.12C80.01 33.96 79.01 36.3 76.82 38.12C76.76 38.17 76.72 38.24 76.72 38.25C77.44 39.15 78.31 39.95 78.8 40.94C79.36 42.05 79.8 43.32 79.88 44.55C80.05 47.06 80.01 49.6 79.9 52.12C79.85 53.15 79.48 54.2 79.11 55.19C78.76 56.11 77.83 56.43 76.99 56.1C76.15 55.77 75.71 54.92 76.07 53.99C76.61 52.61 76.65 51.21 76.63 49.77C76.6 48.03 76.68 46.28 76.54 44.55C76.31 41.89 74.32 40.11 71.66 40C71.47 40 71.29 40 71.11 40C50.34 40 29.57 40 8.81 40C6.09 40 4.17 41.35 3.51 43.73C3.47 43.88 3.42 44.03 3.42 44.19C3.4 46.76 3.24 49.34 3.39 51.91C3.57 54.92 5.67 56.67 8.78 56.67C13.41 56.68 18.04 56.68 22.68 56.68C26.95 56.68 31.21 56.68 35.48 56.68C35.82 56.68 36.16 56.68 36.49 56.73C37.23 56.85 37.74 57.43 37.81 58.17C37.88 58.96 37.47 59.64 36.73 59.86C36.36 59.97 35.96 60 35.58 60C26.63 60 17.67 60 8.72 60C6.07 60 4.16 61.38 3.51 63.74C3.47 63.88 3.42 64.04 3.42 64.19C3.39 66.74 3.23 69.3 3.38 71.84C3.55 74.9 5.64 76.67 8.78 76.67C15.63 76.68 22.47 76.68 29.32 76.68C29.58 76.68 29.84 76.67 30.1 76.69C31.01 76.74 31.54 77.16 31.75 77.96C31.94 78.72 31.63 79.37 30.85 79.84C30.76 79.89 30.69 79.95 30.6 80L7.18 80C7.01 79.95 6.85 79.88 6.68 79.84C3.57 79.1 1.48 77.21 0.41 74.21C0.24 73.75 0.13 73.28 0 72.82L0 63.91C0.5 61.71 1.46 59.78 3.43 58.32C2.86 57.8 2.32 57.36 1.86 56.85C0.82 55.7 0.41 54.25 0 52.81L0 43.91C0.5 41.71 1.46 39.78 3.43 38.32C2.86 37.79 2.32 37.35 1.85 36.84C0.82 35.7 0.41 34.25 0 32.81L0 23.91ZM39.97 20C29.64 20 19.31 20 8.98 20.01C8.52 20.01 8.04 20.02 7.58 20.09C5.3 20.44 3.55 22.17 3.42 24.48C3.28 26.92 3.32 29.37 3.36 31.81C3.37 32.49 3.57 33.22 3.86 33.83C4.89 35.95 6.72 36.69 8.98 36.69C29.64 36.67 50.3 36.68 70.96 36.68C71.14 36.68 71.32 36.69 71.5 36.68C74.15 36.55 76.34 34.85 76.49 32.51C76.66 29.89 76.56 27.26 76.56 24.63C76.56 24.33 76.5 24.01 76.42 23.71C75.77 21.39 73.87 20.01 71.27 20.01C60.84 20 50.4 20 39.97 20L39.97 20ZM7.63 16.66L72.29 16.66C72.12 16.37 72 16.15 71.86 15.94C69.85 12.69 67.79 9.46 65.82 6.19C64.63 4.21 62.96 3.31 60.66 3.32C54.06 3.35 47.45 3.33 40.84 3.33C33.6 3.33 26.37 3.34 19.14 3.32C16.97 3.32 15.35 4.19 14.21 6.05C12.42 9 10.57 11.93 8.74 14.86C8.39 15.44 8.04 16.01 7.63 16.66L7.63 16.66Z" fill="#357EFE" fill-opacity="1.000000" fill-rule="nonzero"/>
		<path id="Vector" d="M40.6 80C38.99 79.62 37.51 79.04 36.21 77.95C32.3 74.66 32.38 68.25 36.47 65.19C37.36 64.52 38.46 64.11 39.5 63.66C39.87 63.49 40.08 63.36 40.14 62.93C41.37 54.67 48.76 49.04 56.98 50.17C61 50.72 64.27 52.66 66.75 55.88C67.15 56.39 67.48 56.72 68.25 56.71C74.32 56.64 79.41 61.32 79.92 67.38C80.43 73.43 76.1 78.91 70.07 79.85C69.92 79.87 69.79 79.94 69.64 80L40.6 80ZM55.16 76.67C59.4 76.67 63.64 76.67 67.88 76.67C67.93 76.67 67.99 76.67 68.04 76.67C73.42 76.62 77.19 72.34 76.52 67.07C76 62.99 71.82 59.53 67.86 60.07C66.29 60.28 65.36 59.86 64.52 58.51C62.14 54.7 57.38 52.71 52.97 53.52C47.62 54.5 43.77 58.78 43.36 64.22C43.2 66.24 42.94 66.51 40.95 66.73C38.14 67.03 36.08 70.04 36.79 72.79C37.41 75.23 39.33 76.66 42.05 76.67C46.42 76.68 50.79 76.67 55.16 76.67Z" fill="#357EFE" fill-opacity="1.000000" fill-rule="nonzero"/>
		<path id="Vector" d="M55.01 43.32C59.22 43.32 63.44 43.32 67.65 43.32C69.13 43.32 69.92 43.89 69.94 44.97C69.97 46.06 69.14 46.68 67.63 46.68C59.18 46.68 50.73 46.68 42.28 46.68C40.8 46.68 40.01 46.11 39.99 45.03C39.96 43.94 40.79 43.32 42.3 43.32C46.53 43.32 50.77 43.32 55.01 43.32Z" fill="#357EFE" fill-opacity="1.000000" fill-rule="nonzero"/>
		<path id="Vector" d="M11.68 53.31C8.91 53.33 6.67 51.09 6.68 48.32C6.69 45.59 8.9 43.36 11.63 43.34C14.35 43.31 16.67 45.63 16.65 48.35C16.64 51.07 14.41 53.29 11.68 53.31L11.68 53.31ZM13.29 48.34C13.3 47.43 12.59 46.71 11.68 46.7C10.76 46.68 9.98 47.46 10 48.37C10.02 49.23 10.81 50 11.67 49.99C12.55 49.98 13.29 49.23 13.29 48.34L13.29 48.34Z" fill="#357EFE" fill-opacity="1.000000" fill-rule="nonzero"/>
		<path id="Vector" d="M11.64 73.31C8.87 73.3 6.65 71.05 6.68 68.28C6.71 65.55 8.96 63.32 11.67 63.33C14.38 63.35 16.62 65.58 16.65 68.3C16.68 71.03 14.4 73.32 11.64 73.31L11.64 73.31ZM13.29 68.32C13.29 67.42 12.57 66.7 11.67 66.7C10.78 66.69 10.02 67.42 10 68.3C9.98 69.2 10.79 70.01 11.68 69.99C12.57 69.97 13.3 69.21 13.29 68.32L13.29 68.32Z" fill="#357EFE" fill-opacity="1.000000" fill-rule="nonzero"/>
		<path id="Vector" d="M54.96 23.33C59.17 23.33 63.38 23.33 67.59 23.33C69.13 23.33 69.94 23.9 69.94 24.99C69.95 26.09 69.13 26.68 67.61 26.68C59.19 26.68 50.76 26.68 42.34 26.68C40.8 26.68 39.99 26.11 39.99 25.01C39.98 23.92 40.8 23.33 42.32 23.33C46.53 23.33 50.74 23.33 54.96 23.33Z" fill="#357EFE" fill-opacity="1.000000" fill-rule="nonzero"/>
		<path id="Vector" d="M54.92 33.32C50.76 33.32 46.6 33.32 42.43 33.32C42.2 33.32 41.96 33.33 41.73 33.32C40.7 33.26 40 32.6 39.99 31.69C39.97 30.77 40.67 30.08 41.7 30.01C41.88 29.99 42.06 30 42.24 30C50.73 30 59.21 30 67.69 30.01C68.08 30.01 68.48 30.03 68.84 30.15C69.53 30.35 69.99 31.08 69.94 31.77C69.88 32.52 69.32 33.16 68.58 33.27C68.25 33.32 67.91 33.32 67.57 33.32C63.35 33.33 59.14 33.32 54.92 33.32L54.92 33.32Z" fill="#357EFE" fill-opacity="1.000000" fill-rule="nonzero"/>
		<path id="Vector" d="M11.68 33.31C8.91 33.33 6.67 31.09 6.68 28.32C6.69 25.59 8.92 23.35 11.63 23.34C14.36 23.33 16.66 25.62 16.65 28.36C16.64 31.07 14.4 33.3 11.68 33.31ZM11.66 26.7C10.77 26.7 10.02 27.43 10 28.31C9.98 29.2 10.8 30.01 11.69 29.99C12.57 29.97 13.3 29.21 13.29 28.32C13.28 27.42 12.57 26.7 11.66 26.7Z" fill="#357EFE" fill-opacity="1.000000" fill-rule="nonzero"/>
	</g>
</svg>
