<svg width="80.000000" height="86.000000" viewBox="0 0 80 86" fill="none" xmlns="http://www.w3.org/2000/svg" xmlns:xlink="http://www.w3.org/1999/xlink">
	<desc>
			Created with Pixso.
	</desc>
	<defs>
		<clipPath id="clip1_1004">
			<rect id="premium-icon-ssl-2603337 1" width="80.000000" height="86.000000" fill="white" fill-opacity="0"/>
		</clipPath>
	</defs>
	<rect id="premium-icon-ssl-2603337 1" width="80.000000" height="86.000000" fill="#FFFFFF" fill-opacity="0"/>
	<g clip-path="url(#clip1_1004)">
		<path id="Vector" d="M0.01 25.44C0.01 24.32 0 23.2 0.01 22.08C0.05 18.99 2.06 16.62 5.16 16.2C17.28 14.53 27.71 9.36 36.77 1.32C38.8 -0.47 41.27 -0.45 43.35 1.41C49.99 7.33 57.52 11.75 66.1 14.28C68.89 15.1 71.78 15.65 74.66 16.14C77.75 16.66 79.97 18.83 79.99 21.87C80.06 33.69 78.38 45.22 73.9 56.24C70.88 63.65 66.61 70.25 60.57 75.64C54.85 80.74 48.19 84.07 40.75 85.92C40.22 86.05 39.59 86 39.06 85.86C24.51 82.11 14.31 73.21 7.8 59.96C4.56 53.39 2.5 46.44 1.41 39.23C0.71 34.67 0.53 30.03 0.01 25.44ZM75.83 25.53C75.83 24.41 75.84 23.3 75.83 22.18C75.81 21 75.3 20.47 74.13 20.27C72.65 20.03 71.15 19.81 69.68 19.49C58.77 17.12 49.23 12.1 40.91 4.77C40.23 4.17 39.84 4.13 39.14 4.75C29.67 13.07 18.76 18.4 6.18 20.24C4.54 20.48 4.19 20.91 4.19 22.58C4.19 27.69 4.56 32.78 5.38 37.84C6.54 45.07 8.5 52.07 11.82 58.64C17.67 70.21 26.61 78.18 39.37 81.66C39.72 81.75 40.13 81.82 40.46 81.73C47.15 79.93 53.12 76.81 58.2 72.12C64.78 66.05 68.93 58.52 71.69 50.15C74.33 42.16 75.53 33.92 75.83 25.53L75.83 25.53Z" fill="#357EFE" fill-opacity="1.000000" fill-rule="nonzero"/>
		<path id="Vector" d="M39.58 53.34C37.94 53.24 36.39 52.94 34.96 52.17C33.99 51.66 33.48 49.51 34.16 48.68C34.29 48.52 34.85 48.54 35.11 48.68C36.39 49.38 37.7 50 39.19 49.99C39.9 49.98 40.66 49.91 41.31 49.66C42.97 49.02 43.27 47.02 41.91 45.89C41.43 45.49 40.85 45.2 40.28 44.91C39.38 44.46 38.43 44.08 37.55 43.6C34.93 42.19 33.86 40.02 34.39 37.34C34.88 34.86 36.81 33.21 39.69 32.9C41.32 32.72 42.92 32.88 44.47 33.48C45.41 33.83 45.81 34.4 45.8 35.42C45.76 37.46 45.77 37.42 43.92 36.69C42.87 36.28 41.7 36.08 40.57 36C39.53 35.93 38.73 36.6 38.49 37.4C38.19 38.35 38.5 39.24 39.46 39.86C40.16 40.31 40.94 40.63 41.69 41.01C42.38 41.35 43.1 41.66 43.79 42.03C46.06 43.24 47.19 45.1 46.92 47.67C46.66 50.22 45.02 52.13 42.48 52.83C41.54 53.09 40.55 53.17 39.58 53.34Z" fill="#357EFE" fill-opacity="1.000000" fill-rule="nonzero"/>
		<path id="Vector" d="M23.21 53.29C21.64 53.24 20.15 52.94 18.76 52.23C17.71 51.7 17.17 49.66 17.8 48.69C18.14 48.17 18.51 48.49 18.85 48.69C20.09 49.4 21.39 50 22.85 49.98C23.61 49.96 24.43 49.88 25.12 49.59C26.63 48.95 26.93 47.02 25.68 45.97C25 45.41 24.16 45.04 23.37 44.62C22.46 44.13 21.47 43.76 20.59 43.21C18.49 41.9 17.67 39.96 18.05 37.53C18.4 35.25 19.8 33.86 21.99 33.2C23.81 32.64 25.65 32.71 27.47 33.24C29.29 33.77 29.58 34.21 29.47 36.07C29.38 37.41 29.25 37.49 28.04 36.86C26.86 36.26 25.64 35.85 24.29 35.97C23.19 36.06 22.43 36.58 22.17 37.46C21.89 38.38 22.21 39.25 23.18 39.88C23.81 40.29 24.51 40.59 25.18 40.92C25.83 41.24 26.5 41.51 27.14 41.84C29.87 43.28 30.96 45.24 30.58 47.98C30.21 50.54 28.28 52.46 25.44 53.02C24.71 53.16 23.95 53.2 23.21 53.29L23.21 53.29Z" fill="#357EFE" fill-opacity="1.000000" fill-rule="nonzero"/>
		<path id="Vector" d="M55.51 49.59C57.5 49.59 59.38 49.62 61.26 49.58C62 49.56 62.34 49.83 62.36 50.54C62.36 50.63 62.38 50.71 62.39 50.8C62.55 52.67 62.36 52.89 60.51 52.89C58.01 52.89 55.52 52.9 53.03 52.89C51.77 52.89 51.47 52.61 51.46 51.39C51.46 45.65 51.47 39.91 51.45 34.18C51.45 33.54 51.66 33.2 52.31 33.16C52.51 33.14 52.71 33.09 52.91 33.08C55.35 32.91 55.51 33.05 55.51 35.45L55.51 48.53C55.51 48.85 55.51 49.16 55.51 49.59L55.51 49.59Z" fill="#357EFE" fill-opacity="1.000000" fill-rule="nonzero"/>
	</g>
</svg>
