<svg width="24.000000" height="24.000000" viewBox="0 0 24 24" fill="none" xmlns="http://www.w3.org/2000/svg" xmlns:xlink="http://www.w3.org/1999/xlink">
	<desc>
			Created with Pixso.
	</desc>
	<defs>
		<clipPath id="clip1_1442">
			<rect width="24.000000" height="24.000000" transform="translate(0.000000 -0.500000)" fill="white" fill-opacity="0"/>
		</clipPath>
	</defs>
	<g clip-path="url(#clip1_1442)">
		<path d="M12 1.5C6.48 1.5 2 5.98 2 11.5C2 17.01 6.48 21.5 12 21.5C17.51 21.5 22 17.01 22 11.5C22 5.98 17.51 1.5 12 1.5ZM12 19.5C7.58 19.5 4 15.91 4 11.5C4 7.08 7.58 3.5 12 3.5C16.41 3.5 20 7.08 20 11.5C20 15.91 16.41 19.5 12 19.5ZM13 15.5C13 16.05 12.55 16.5 12 16.5C11.44 16.5 11 16.05 11 15.5C11 14.94 11.44 14.5 12 14.5C12.55 14.5 13 14.94 13 15.5ZM13 7.5L13 11.5C13 12.05 12.55 12.5 12 12.5C11.44 12.5 11 12.05 11 11.5L11 7.5C11 6.94 11.44 6.5 12 6.5C12.55 6.5 13 6.94 13 7.5Z" fill="#FFFFFF" fill-opacity="0.800000" fill-rule="evenodd"/>
	</g>
</svg>
