<svg width="24.000000" height="24.000000" viewBox="0 0 24 24" fill="none" xmlns="http://www.w3.org/2000/svg" xmlns:xlink="http://www.w3.org/1999/xlink">
	<desc>
			Created with Pixso.
	</desc>
	<defs>
		<clipPath id="clip1_1424">
			<rect id="3 - Bold / check-circle" width="24.000000" height="24.000000" transform="translate(0.000000 -0.500000)" fill="white" fill-opacity="0"/>
		</clipPath>
	</defs>
	<g clip-path="url(#clip1_1424)">
		<path id="check-circle-Bold" d="M16.7 8.79C17.09 9.18 17.09 9.81 16.7 10.2L11.7 15.2C11.51 15.4 11.25 15.5 11 15.5C10.74 15.5 10.48 15.4 10.29 15.2L7.29 12.2C6.9 11.81 6.9 11.18 7.29 10.79C7.68 10.4 8.31 10.4 8.7 10.79L11 13.08L15.29 8.79C15.68 8.4 16.31 8.4 16.7 8.79ZM22 11.5C22 17.01 17.51 21.5 12 21.5C6.48 21.5 2 17.01 2 11.5C2 5.98 6.48 1.5 12 1.5C17.51 1.5 22 5.98 22 11.5ZM20 11.5C20 7.08 16.41 3.5 12 3.5C7.58 3.5 4 7.08 4 11.5C4 15.91 7.58 19.5 12 19.5C16.41 19.5 20 15.91 20 11.5Z" fill="#FFFFFF" fill-opacity="0.800000" fill-rule="evenodd"/>
	</g>
</svg>
