<svg width="334.000000" height="86.000000" viewBox="0 0 334 86" fill="none" xmlns="http://www.w3.org/2000/svg" xmlns:xlink="http://www.w3.org/1999/xlink">
	<desc>
			Created with Pixso.
	</desc>
	<defs>
		<clipPath id="clip1_738">
			<rect id="ozon-seeklogo.com 1" width="109.890106" height="24.000000" transform="translate(224.000000 1.000000)" fill="white" fill-opacity="0"/>
		</clipPath>
	</defs>
	<path id="Vector" d="M6.36 23.56L0.08 0.41L4.2 0.41L9.02 18.19L14.19 0.41L18.03 0.41L23.22 18.28L28.07 0.41L32.18 0.41L25.9 23.55L21.13 23.55L16.11 6.26L11.09 23.55L6.36 23.56Z" fill="#FFFFFF" fill-opacity="1.000000" fill-rule="nonzero"/>
	<path id="Vector" d="M35.03 0.42L38.95 0.42L38.95 23.54L35.03 23.54L35.03 0.42Z" fill="#FFFFFF" fill-opacity="1.000000" fill-rule="nonzero"/>
	<path id="Vector" d="M47.33 19.91L56.87 19.91L56.87 23.54L43.49 23.54L43.49 0.42L47.33 0.42L47.33 19.91Z" fill="#FFFFFF" fill-opacity="1.000000" fill-rule="nonzero"/>
	<path id="Vector" d="M68.93 0.45C72.15 0.45 74.83 1.57 76.94 3.78C79.07 6 80.15 8.74 80.15 12C80.15 15.22 79.07 17.97 76.94 20.21C74.83 22.42 72.15 23.54 68.93 23.54L59.71 23.54L59.71 0.42L68.93 0.42L68.93 0.45ZM68.93 19.94C71.15 19.94 72.96 19.2 74.31 17.7C75.72 16.21 76.42 14.29 76.42 12.02C76.42 9.7 75.72 7.84 74.31 6.34C72.93 4.85 71.12 4.1 68.93 4.1L63.58 4.1L63.58 19.94L68.93 19.94Z" fill="#FFFFFF" fill-opacity="1.000000" fill-rule="nonzero"/>
	<path id="Vector" d="M100.84 16.94C100.84 18.83 100.16 20.41 98.78 21.66C97.41 22.91 95.78 23.55 93.78 23.55L83.75 23.55L83.75 0.42L93.05 0.42C94.97 0.42 96.59 1.06 97.92 2.26C99.27 3.49 99.92 5.01 99.92 6.83C99.92 8.85 99.11 10.4 97.54 11.55C99.6 12.61 100.84 14.54 100.84 16.94ZM87.62 4L87.62 10.08L93.08 10.08C94.78 10.08 96.08 8.75 96.08 7.04C96.08 5.33 94.78 4 93.08 4L87.62 4ZM93.81 19.98C95.59 19.98 97 18.56 97 16.75C97 14.94 95.59 13.52 93.81 13.52L87.62 13.52L87.62 20.01L93.81 20.01L93.81 19.98Z" fill="#FFFFFF" fill-opacity="1.000000" fill-rule="nonzero"/>
	<path id="Vector" d="M108.33 19.93L118.71 19.93L118.71 23.55L104.49 23.55L104.49 0.42L118.55 0.42L118.55 4.05L108.33 4.05L108.33 10.05L117.71 10.05L117.71 13.66L108.33 13.66L108.33 19.93Z" fill="#FFFFFF" fill-opacity="1.000000" fill-rule="nonzero"/>
	<path id="Vector" d="M135.53 23.55L130.56 15.12L126.01 15.12L126.01 23.55L122.17 23.55L122.17 0.42L131.56 0.42C133.67 0.42 135.45 1.14 136.88 2.61C138.34 4.02 139.1 5.78 139.1 7.87C139.1 10.8 137.24 13.5 134.45 14.56L139.78 23.55L135.53 23.55ZM126.01 4L126.01 11.73L131.53 11.73C133.58 11.73 135.21 10.03 135.21 7.87C135.21 5.73 133.56 4 131.53 4L126.01 4Z" fill="#FFFFFF" fill-opacity="1.000000" fill-rule="nonzero"/>
	<path id="Vector" d="M156.05 23.55L151.11 15.12L146.56 15.12L146.56 23.55L142.72 23.55L142.72 0.41L152.11 0.41C154.22 0.41 156 1.13 157.43 2.6C158.89 4.01 159.65 5.77 159.65 7.86C159.65 10.79 157.78 13.49 155 14.56L160.33 23.55L156.05 23.55ZM146.56 3.99L146.56 11.73L152.08 11.73C154.13 11.73 155.76 10.02 155.76 7.86C155.76 5.72 154.11 3.99 152.08 3.99L146.56 3.99Z" fill="#FFFFFF" fill-opacity="1.000000" fill-rule="nonzero"/>
	<path id="Vector" d="M163.14 0.41L166.98 0.41L166.98 23.55L163.14 23.55L163.14 0.41Z" fill="#FFFFFF" fill-opacity="1.000000" fill-rule="nonzero"/>
	<path id="Vector" d="M175.36 19.93L185.74 19.93L185.74 23.55L171.52 23.55L171.52 0.42L185.58 0.42L185.58 4.05L175.36 4.05L175.36 10.05L184.74 10.05L184.74 13.66L175.36 13.66L175.36 19.93Z" fill="#FFFFFF" fill-opacity="1.000000" fill-rule="nonzero"/>
	<path id="Vector" d="M188.42 18.29L191.75 16.37C192.69 18.98 194.61 20.26 197.56 20.26C200.48 20.26 201.91 19.04 201.91 17.22C201.91 16.26 201.51 15.57 200.75 15.09C199.99 14.58 198.59 14.02 196.59 13.43C194.34 12.77 193.23 12.34 191.66 11.33C190.15 10.26 189.39 8.74 189.39 6.66C189.39 4.61 190.12 3.01 191.61 1.81C193.07 0.58 194.86 0 196.94 0C200.7 0 203.59 1.91 205.1 5.09L201.86 6.93C200.89 4.79 199.24 3.7 196.94 3.7C194.69 3.7 193.26 4.82 193.26 6.58C193.26 8.29 194.4 9.09 197.99 10.18C198.88 10.48 199.53 10.69 199.94 10.85C200.37 10.98 200.94 11.22 201.67 11.52C202.43 11.81 203.02 12.16 203.37 12.45C204.62 13.41 205.94 14.98 205.78 17.2C205.78 19.27 205.02 20.96 203.48 22.18C201.97 23.41 199.97 24 197.48 24C192.94 23.97 189.64 21.83 188.42 18.29Z" fill="#FFFFFF" fill-opacity="1.000000" fill-rule="nonzero"/>
	<rect id="ozon-seeklogo.com 1" width="109.890106" height="24.000000" transform="translate(224.000000 1.000000)" fill="#FFFFFF" fill-opacity="0"/>
	<g clip-path="url(#clip1_738)">
		<path id="Vector" d="M239.39 19C242.08 18.66 244.26 16.48 244.6 13.78C244.72 12.86 244.63 11.93 244.33 11.05C244.03 10.17 243.54 9.37 242.88 8.72C242.22 8.06 241.43 7.56 240.55 7.26C239.67 6.96 238.73 6.87 237.81 6.99C235.12 7.34 232.94 9.51 232.6 12.21C232.48 13.13 232.57 14.06 232.87 14.94C233.17 15.82 233.67 16.62 234.32 17.27C234.98 17.93 235.78 18.43 236.65 18.73C237.53 19.02 238.47 19.12 239.39 19ZM239.76 1.71C242.35 1.98 244.77 3.13 246.62 4.98C248.46 6.82 249.62 9.24 249.89 11.84C250.6 19.01 244.62 25 237.44 24.28C234.85 24.01 232.43 22.86 230.58 21.01C228.74 19.17 227.58 16.75 227.31 14.15C226.6 6.98 232.58 1 239.76 1.71ZM255.98 2.16L272.59 2.16C273.22 2.16 273.57 2.88 273.19 3.38L261.7 18.54L270.71 18.54C272.35 18.54 273.64 20.03 273.3 21.74C273.05 22.98 271.88 23.83 270.61 23.83L252.57 23.83C251.94 23.83 251.59 23.12 251.97 22.62L263.47 7.45L256.07 7.45C254.8 7.45 253.63 6.6 253.38 5.35C253.04 3.65 254.34 2.16 255.98 2.16ZM328.06 2.22C329.77 1.85 331.28 3.15 331.28 4.8L331.28 23.07C331.28 23.71 330.54 24.06 330.05 23.67L315.72 12.3L315.72 21.19C315.72 22.84 314.21 24.14 312.5 23.78C311.27 23.52 310.42 22.38 310.42 21.12L310.42 2.92C310.42 2.28 311.16 1.93 311.66 2.32L325.99 13.69L325.99 4.87C325.99 3.62 326.83 2.48 328.06 2.22L328.06 2.22ZM290.75 1.65C299.52 1.65 306.63 6.73 306.63 12.99C306.63 19.26 299.52 24.34 290.75 24.34C281.98 24.34 274.87 19.26 274.87 12.99C274.87 6.73 281.98 1.65 290.75 1.65ZM290.75 6.94C284.69 6.94 280.16 10.14 280.16 12.99C280.16 15.85 284.69 19.04 290.75 19.04C296.81 19.04 301.34 15.85 301.34 12.99C301.34 10.13 296.81 6.94 290.75 6.94Z" fill="#FFFFFF" fill-opacity="1.000000" fill-rule="nonzero"/>
	</g>
	<path id="Subtract" d="M32.6838 70.1411C30.4973 71.9214 28.1295 72.7998 25.6647 72.0498C20.6769 70.4297 21.2311 65.1865 21.5721 62.9268L13.9412 75.1191L7.67444 72.9453L8.82544 64.8452L2.90442 72.687C5.98694 77.2197 11.2178 80.1899 17.0958 80.1899C24.0456 80.1899 30.0068 76.0752 32.6838 70.1411ZM33.8798 59.8218C31.4241 63.5269 29.0577 66.1475 27.7963 65.8257C25.6595 65.2812 27.5169 58.5596 28.7551 54.0796C28.7767 54.001 28.7982 53.9233 28.8195 53.8462L28.8195 53.7188L21.8705 51.3311L13.5575 64.8877L14.7086 57.4702L8.69751 55.3813L0.292236 66.3818C0.0911865 65.3188 -0.00939941 64.2197 0.000732422 63.0952C0.000732422 53.6309 7.63171 46 17.0958 46C25.4398 46 32.3589 51.9316 33.8798 59.8218Z" clip-rule="evenodd" fill="#FFFFFF" fill-opacity="1.000000" fill-rule="evenodd"/>
	<path id="Vector" d="M52.39 75.62L56.14 75.62L61.38 56.14L61.38 75.62L65.6 75.62L65.6 49.88L59.81 49.88L54.56 68.76L49.32 49.88L43.39 49.88L43.39 75.62L47.02 75.62L47.02 56.14L52.39 75.62ZM83.25 62.88C83.25 58.32 80.99 56.61 76.31 56.61C73.36 56.61 71.06 57.51 69.7 58.32L69.7 61.94C70.85 61.04 73.45 60.11 75.75 60.11C77.93 60.11 78.82 60.92 78.82 62.84L78.82 63.86L78.14 63.86C71.4 63.86 68.33 66.12 68.33 69.91C68.33 73.71 70.59 75.84 74.05 75.84C76.65 75.84 77.8 75.03 78.61 74.13L78.82 74.13C78.82 74.6 79.03 75.28 79.16 75.62L83.51 75.62C83.38 74.13 83.3 72.56 83.3 71.06C83.25 71.06 83.25 62.88 83.25 62.88ZM78.82 71.19C78.27 72 77.24 72.68 75.62 72.68C73.79 72.68 72.89 71.53 72.89 69.95C72.89 67.78 74.39 67.01 78.27 67.01L78.95 67.01L78.95 71.23L78.82 71.23L78.82 71.19ZM90.89 56.95L86.79 56.95L86.79 81L91.23 81L91.23 73.49C92.38 75.2 93.95 76.01 95.92 76.01C100.26 76.01 103.21 72.6 103.21 66.33C103.21 60.06 100.35 56.65 96.13 56.65C94.08 56.65 92.38 57.55 91.1 59.38C91.14 59.34 90.89 56.95 90.89 56.95ZM94.68 72.56C92.42 72.56 91.14 70.64 91.14 66.42C91.14 62.07 92.38 60.15 94.89 60.15C97.28 60.15 98.52 62.07 98.52 66.29C98.52 70.64 97.28 72.56 94.68 72.56ZM116.98 75.62L122.01 75.62L114.93 65.61L121.2 56.95L116.76 56.95L110.5 65.61L110.5 56.95L106.06 56.95L106.06 75.62L110.5 75.62L110.5 66.5L116.98 75.62ZM136.8 74.39L136.8 70.76C135.44 71.66 133.17 72.47 131 72.47C127.8 72.47 126.57 70.98 126.31 67.78L136.88 67.78L136.88 65.39C136.88 58.91 134.03 56.53 129.59 56.53C124.22 56.53 121.62 60.62 121.62 66.33C121.62 72.81 124.82 76.01 130.4 76.01C133.52 75.97 135.56 75.28 136.8 74.39ZM129.64 60.15C131.81 60.15 132.49 61.98 132.49 64.24L132.49 64.58L126.31 64.58C126.44 61.64 127.59 60.15 129.64 60.15ZM152.74 60.49L152.74 56.95L137.95 56.95L137.95 60.49L143.19 60.49L143.19 75.62L147.63 75.62L147.63 60.49L152.74 60.49Z" fill="#FFFFFF" fill-opacity="1.000000" fill-rule="nonzero"/>
	<path id="path12" d="M216.7 75.56L216.7 51.07L231.18 51.07L231.18 54.14L219.7 54.14L219.7 61.67L230.01 61.67L230.01 64.74L219.7 64.74L219.7 72.42L231.98 72.42L231.98 75.49L216.7 75.49L216.7 75.56Z" fill="#FFFFFF" fill-opacity="1.000000" fill-rule="nonzero"/>
	<path id="path14" d="M247.19 75.56L242.22 69.05L237.25 75.56L233.74 75.56L240.54 66.86L233.37 57.87L237.32 57.87L242.22 64.59L247.19 57.87L251.07 57.87L244.27 66.86L250.7 75.56L247.19 75.56Z" fill="#FFFFFF" fill-opacity="1.000000" fill-rule="nonzero"/>
	<path id="path16" d="M255.53 72.93L255.53 85L252.53 85L252.53 66.93C252.53 62.33 256.04 57.43 261.53 57.43C267.08 57.43 271.25 60.94 271.25 66.72C271.25 72.35 267.01 76.22 262.18 76.22C259.84 76.22 256.7 75.2 255.53 72.93ZM268.11 66.72C268.11 62.77 265.55 60.43 261.01 60.65C258.82 60.72 255.46 62.33 255.75 67.96C255.82 69.79 257.72 73.22 261.89 73.22C265.47 73.22 268.11 71.18 268.11 66.72Z" fill="#FFFFFF" fill-opacity="1.000000" fill-rule="nonzero"/>
	<path id="path18" d="M273.81 75.56L273.81 57.87L276.81 57.87L276.81 59.77C278.27 58.09 280.54 57.5 282.95 57.5L282.95 60.72C282.58 60.64 279 60.21 276.81 64.89L276.81 75.64L273.81 75.64L273.81 75.56Z" fill="#FFFFFF" fill-opacity="1.000000" fill-rule="nonzero"/>
	<path id="path20" d="M283.75 66.72C283.75 61.6 287.41 57.43 292.46 57.43C298.74 57.43 301.08 61.6 301.08 66.93L301.08 68.4L287.04 68.4C287.26 71.76 290.26 73.52 293.04 73.44C295.09 73.37 296.48 72.78 297.94 71.32L299.91 73.37C298.09 75.12 295.75 76.29 292.89 76.29C287.56 76.22 283.75 72.27 283.75 66.72ZM292.24 60.43C289.38 60.43 287.19 62.91 287.04 65.62L297.94 65.62C297.94 62.99 296.04 60.43 292.24 60.43Z" fill="#FFFFFF" fill-opacity="1.000000" fill-rule="nonzero"/>
	<path id="path22" d="M302.62 73.08L304.81 71.1C304.74 71.1 305.91 72.27 306.06 72.35C306.57 72.79 307.08 73.08 307.74 73.23C309.64 73.74 313.08 73.59 313.37 70.96C313.51 69.5 312.42 68.69 311.17 68.18C309.57 67.59 307.81 67.38 306.2 66.64C304.37 65.84 303.2 64.45 303.2 62.4C303.2 57.07 310.81 56.19 314.25 58.67C314.39 58.82 316.07 60.36 316 60.36L313.81 62.11C312.71 60.79 311.69 60.14 309.35 60.14C308.18 60.14 306.57 60.65 306.28 61.89C305.84 63.65 307.81 64.3 309.13 64.67C310.88 65.11 312.78 65.4 314.32 66.35C316.44 67.67 316.95 70.52 316.15 72.71C315.27 75.13 312.64 76.08 310.3 76.15C307.52 76.3 305.1 75.42 303.13 73.44C302.99 73.44 302.62 73.08 302.62 73.08Z" fill="#FFFFFF" fill-opacity="1.000000" fill-rule="nonzero"/>
	<path id="path24" d="M318.05 73.08L320.24 71.1C320.17 71.1 321.34 72.27 321.49 72.35C322 72.79 322.51 73.08 323.17 73.23C325.07 73.74 328.51 73.59 328.8 70.96C328.94 69.5 327.85 68.69 326.6 68.18C325 67.59 323.24 67.38 321.63 66.64C319.8 65.84 318.63 64.45 318.63 62.4C318.63 57.07 326.24 56.19 329.68 58.67C329.82 58.82 331.5 60.36 331.43 60.36L329.24 62.11C328.14 60.79 327.12 60.14 324.78 60.14C323.61 60.14 322 60.65 321.7 61.89C321.27 63.65 323.24 64.3 324.56 64.67C326.31 65.11 328.21 65.4 329.75 66.35C331.87 67.67 332.38 70.52 331.58 72.71C330.7 75.13 328.07 76.08 325.73 76.15C322.95 76.3 320.53 75.42 318.56 73.44C318.41 73.44 318.05 73.08 318.05 73.08Z" fill="#FFFFFF" fill-opacity="1.000000" fill-rule="nonzero"/>
	<path id="path34" d="M196.37 75.56L194.18 69.71L182.33 69.71L180.14 75.56L177 75.56L186.5 51.07L189.94 51.07L199.37 75.56L196.37 75.56ZM188.11 54.58L183.65 66.71L192.94 66.71L188.11 54.58Z" fill="#FFFFFF" fill-opacity="1.000000" fill-rule="nonzero"/>
	<path id="path36" d="M201.34 75.56L201.34 51.07L204.42 51.07L204.42 75.56L201.34 75.56Z" fill="#FFFFFF" fill-opacity="1.000000" fill-rule="nonzero"/>
	<path id="path38" d="M209.02 75.56L209.02 58.23L212.09 58.23L212.09 75.56L209.02 75.56Z" fill="#FFFFFF" fill-opacity="1.000000" fill-rule="nonzero"/>
	<path id="XMLID_1_" d="M215.02 52.6L215.02 52.31C212.68 52.24 210.78 50.33 210.7 48L210.27 48C210.19 50.33 208.29 52.24 205.95 52.31L205.95 52.6C208.29 52.67 210.19 54.58 210.27 56.92L210.7 56.92C210.78 54.58 212.68 52.67 215.02 52.6Z" fill="#FFFFFF" fill-opacity="1.000000" fill-rule="nonzero"/>
</svg>
