<svg width="48.000000" height="37.000000" viewBox="0 0 48 37" fill="none" xmlns="http://www.w3.org/2000/svg" xmlns:xlink="http://www.w3.org/1999/xlink">
	<desc>
			Created with Pixso.
	</desc>
	<defs>
		<clipPath id="clip1_1404">
			<rect id="2 945239" width="48.000000" height="37.000000" fill="white" fill-opacity="0"/>
		</clipPath>
	</defs>
	<rect id="2 945239" width="48.000000" height="37.000000" fill="#FFFFFF" fill-opacity="0"/>
	<g clip-path="url(#clip1_1404)">
		<g opacity="0.500000">
			<g opacity="0.500000">
				<path id="Vector" d="M10.26 34.93C10.26 34.75 10.3 34.58 10.38 34.41C10.46 34.25 10.58 34.11 10.72 33.99C10.86 33.88 11.02 33.8 11.2 33.75C11.38 33.71 11.56 33.71 11.74 33.74C11.92 33.78 12.09 33.85 12.24 33.96C12.38 34.07 12.5 34.21 12.59 34.37C12.67 34.53 12.72 34.7 12.73 34.88C12.74 35.06 12.7 35.24 12.63 35.41C12.53 35.63 12.37 35.82 12.17 35.95C11.96 36.08 11.72 36.15 11.48 36.15C10.73 36.24 10.27 35.69 10.27 34.93L10.26 34.93ZM13.37 32.98L12.62 32.98L12.62 33.54C12.47 33.34 12.27 33.17 12.04 33.06C11.81 32.95 11.56 32.89 11.3 32.89C10.78 32.93 10.29 33.16 9.94 33.55C9.59 33.93 9.39 34.42 9.39 34.94C9.39 35.46 9.59 35.95 9.94 36.33C10.29 36.71 10.78 36.95 11.3 37C11.54 37.01 11.77 36.97 11.99 36.87C12.2 36.77 12.39 36.62 12.53 36.43L12.53 36.89L13.37 36.89L13.37 32.98ZM42.49 34.93C42.49 34.69 42.56 34.46 42.69 34.26C42.83 34.06 43.02 33.91 43.25 33.81C43.47 33.72 43.72 33.7 43.95 33.74C44.19 33.79 44.41 33.9 44.59 34.07C44.76 34.24 44.88 34.46 44.92 34.69C44.97 34.93 44.95 35.18 44.85 35.4C44.76 35.62 44.6 35.81 44.4 35.94C44.2 36.08 43.96 36.15 43.72 36.15C42.86 36.24 42.49 35.69 42.49 34.93ZM45.61 34.93L45.61 31.39L44.75 31.39L44.75 33.54C44.62 33.34 44.43 33.17 44.22 33.06C44 32.95 43.77 32.89 43.52 32.89C43.26 32.89 42.99 32.95 42.75 33.05C42.5 33.16 42.28 33.31 42.1 33.5C41.92 33.69 41.77 33.92 41.67 34.16C41.58 34.41 41.53 34.67 41.54 34.93C41.52 35.2 41.56 35.47 41.66 35.72C41.75 35.97 41.89 36.2 42.08 36.39C42.27 36.59 42.49 36.74 42.74 36.84C42.99 36.95 43.26 37 43.54 37C43.77 37.01 44.01 36.97 44.22 36.87C44.44 36.77 44.63 36.62 44.77 36.43L44.77 36.89L45.62 36.89L45.61 34.93ZM24.02 33.72C24.28 33.72 24.53 33.81 24.73 33.98C24.92 34.16 25.04 34.39 25.07 34.65L23.01 34.65C23.04 34.4 23.15 34.17 23.34 34C23.52 33.83 23.76 33.73 24.02 33.72ZM24.12 32.89C23.6 32.93 23.11 33.16 22.76 33.55C22.41 33.93 22.21 34.42 22.21 34.94C22.21 35.46 22.41 35.95 22.76 36.33C23.12 36.71 23.6 36.95 24.12 37C24.71 36.99 25.27 36.79 25.73 36.43L25.35 35.78C25.03 36.02 24.63 36.15 24.21 36.15C24.08 36.16 23.94 36.15 23.81 36.11C23.68 36.07 23.56 36 23.45 35.91C23.35 35.83 23.26 35.72 23.2 35.6C23.14 35.48 23.1 35.35 23.09 35.22L26.09 35.22L26.09 34.93C26.11 34.41 25.91 33.9 25.55 33.52C25.19 33.13 24.69 32.91 24.15 32.89L24.12 32.89L24.12 32.89ZM34.53 34.93C34.53 34.69 34.6 34.46 34.74 34.26C34.87 34.06 35.06 33.91 35.29 33.81C35.51 33.72 35.76 33.7 36 33.74C36.24 33.79 36.46 33.9 36.63 34.07C36.8 34.24 36.92 34.46 36.96 34.69C37.01 34.93 36.99 35.17 36.89 35.4C36.8 35.62 36.64 35.81 36.44 35.94C36.24 36.08 36 36.15 35.76 36.15C34.92 36.24 34.53 35.69 34.53 34.93ZM37.74 34.93L37.74 32.98L36.89 32.98L36.89 33.54C36.75 33.34 36.57 33.18 36.35 33.06C36.14 32.95 35.9 32.89 35.65 32.89C35.13 32.93 34.65 33.17 34.29 33.55C33.94 33.93 33.74 34.42 33.74 34.94C33.74 35.46 33.94 35.95 34.29 36.33C34.65 36.71 35.13 36.95 35.65 37C35.89 37.01 36.13 36.97 36.34 36.87C36.56 36.77 36.74 36.62 36.88 36.43L36.88 36.89L37.74 36.89L37.74 34.93L37.74 34.93ZM29.71 34.93C29.69 35.34 29.8 35.75 30.02 36.1C30.25 36.45 30.58 36.71 30.97 36.86C31.23 36.96 31.5 37.01 31.78 37C32.3 37.02 32.81 36.85 33.21 36.52L32.83 35.87C32.52 36.09 32.16 36.22 31.78 36.24C31.62 36.24 31.46 36.22 31.3 36.16C31.15 36.1 31.02 36.01 30.9 35.9C30.79 35.79 30.69 35.65 30.63 35.5C30.57 35.36 30.55 35.2 30.55 35.04C30.54 34.87 30.56 34.71 30.62 34.56C30.67 34.4 30.76 34.26 30.88 34.15C31 34.03 31.14 33.94 31.29 33.89C31.45 33.83 31.61 33.81 31.78 33.82C32.17 33.81 32.54 33.94 32.83 34.19L33.21 33.54C33.05 33.32 32.83 33.14 32.58 33.03C32.33 32.91 32.05 32.86 31.78 32.89C31.5 32.87 31.22 32.91 30.96 33.01C30.69 33.1 30.45 33.25 30.25 33.44C30.05 33.64 29.89 33.87 29.78 34.12C29.68 34.38 29.63 34.66 29.63 34.93L29.71 34.93ZM40.76 32.89C40.55 32.87 40.34 32.91 40.15 33.01C39.97 33.11 39.82 33.27 39.72 33.45L39.72 32.98L38.87 32.98L38.87 36.89L39.72 36.89L39.72 34.75C39.72 34.1 40.01 33.72 40.58 33.72C40.77 33.7 40.96 33.74 41.13 33.82L41.42 33.06C41.18 32.97 40.94 32.91 40.68 32.89L40.76 32.89L40.76 32.89ZM17.8 33.35C17.32 33.06 16.76 32.93 16.2 32.98C15.16 32.98 14.59 33.45 14.59 34.19C14.59 34.93 15.05 35.21 15.91 35.3L16.28 35.41C16.77 35.5 16.95 35.58 16.95 35.78C16.95 35.97 16.66 36.24 16 36.24C15.53 36.24 15.07 36.12 14.68 35.87L14.3 36.52C14.8 36.87 15.4 37.04 16 37C17.14 37 17.8 36.43 17.8 35.69C17.8 34.95 17.32 34.65 16.3 34.56L15.93 34.47C15.55 34.37 15.27 34.37 15.27 34.1C15.27 33.84 15.55 33.63 16.02 33.63C16.45 33.64 16.88 33.77 17.25 34L17.8 33.35L17.8 33.35ZM28.85 32.89C28.64 32.87 28.43 32.92 28.25 33.02C28.07 33.12 27.92 33.27 27.82 33.45L27.82 32.98L26.96 32.98L26.96 36.89L27.82 36.89L27.82 34.75C27.82 34.1 28.1 33.72 28.67 33.72C28.86 33.7 29.05 33.74 29.23 33.82L29.51 32.97C29.15 32.97 28.97 32.89 28.78 32.89L28.85 32.89L28.85 32.89ZM21.48 32.98L20.07 32.98L20.07 31.76L19.21 31.76L19.21 32.98L18.46 32.98L18.46 33.82L19.21 33.82L19.21 35.6C19.21 36.53 19.59 37.08 20.64 37.08C21 37.09 21.36 36.99 21.68 36.8L21.39 36.04C21.17 36.19 20.9 36.25 20.64 36.24C20.16 36.24 20.07 35.96 20.07 35.59L20.07 33.82L21.48 33.82L21.48 32.97L21.48 32.98ZM8.66 36.89L8.66 34.47C8.67 34.27 8.64 34.07 8.57 33.87C8.51 33.68 8.4 33.51 8.26 33.36C8.12 33.21 7.95 33.09 7.76 33.01C7.57 32.93 7.36 32.89 7.16 32.89C6.89 32.88 6.62 32.94 6.37 33.05C6.12 33.16 5.9 33.33 5.73 33.54C5.58 33.33 5.38 33.17 5.15 33.06C4.92 32.94 4.67 32.89 4.41 32.89C4.19 32.87 3.97 32.91 3.77 33.01C3.57 33.11 3.4 33.26 3.28 33.45L3.28 32.98L2.41 32.98L2.41 36.89L3.27 36.89L3.27 34.75C3.25 34.62 3.26 34.49 3.3 34.36C3.34 34.24 3.41 34.12 3.5 34.02C3.59 33.92 3.7 33.85 3.82 33.79C3.95 33.74 4.08 33.71 4.21 33.72C4.77 33.72 5.05 34.1 5.05 34.75L5.05 36.89L5.91 36.89L5.91 34.75C5.89 34.62 5.9 34.49 5.94 34.36C5.98 34.24 6.05 34.12 6.14 34.02C6.23 33.92 6.34 33.84 6.46 33.79C6.59 33.74 6.72 33.71 6.86 33.72C7.43 33.72 7.71 34.1 7.71 34.75L7.71 36.89L8.66 36.89ZM18.33 14.83C18.32 12.59 18.83 10.38 19.82 8.36C20.8 6.34 22.24 4.56 24.02 3.17C22.15 1.73 19.97 0.74 17.64 0.3C15.31 -0.14 12.91 -0.02 10.64 0.64C8.37 1.3 6.29 2.49 4.58 4.1C2.86 5.72 1.57 7.72 0.8 9.93C0.02 12.14 -0.2 14.5 0.13 16.81C0.47 19.13 1.36 21.33 2.73 23.24C4.1 25.15 5.92 26.7 8.02 27.78C10.13 28.85 12.46 29.41 14.83 29.42C18.16 29.44 21.4 28.35 24.02 26.33C22.22 24.99 20.77 23.25 19.79 21.25C18.8 19.25 18.3 17.05 18.33 14.83L18.33 14.83ZM48.04 14.83C48.05 17.59 47.28 20.29 45.8 22.63C44.7 24.38 43.23 25.88 41.5 27.03C39.77 28.18 37.81 28.96 35.75 29.3C33.69 29.65 31.58 29.56 29.56 29.05C27.54 28.53 25.65 27.6 24.02 26.31C25.8 24.94 27.24 23.18 28.22 21.17C29.2 19.16 29.7 16.96 29.68 14.73C29.7 12.5 29.19 10.3 28.21 8.3C27.23 6.29 25.8 4.54 24.02 3.17C26.63 1.14 29.84 0.03 33.16 0C37.11 0.06 40.87 1.65 43.65 4.42C46.43 7.2 48.01 10.93 48.04 14.83Z" fill="#FFFFFF" fill-opacity="1.000000" fill-rule="nonzero"/>
			</g>
			<g opacity="0.500000">
				<path id="Vector" d="M24.02 4.86C22.63 6.14 21.51 7.68 20.74 9.39C19.96 11.11 19.55 12.96 19.51 14.83C19.56 16.71 19.98 18.56 20.76 20.27C21.53 21.99 22.64 23.54 24.02 24.83C25.4 23.54 26.51 21.99 27.28 20.27C28.06 18.56 28.48 16.71 28.52 14.83C28.49 12.96 28.08 11.1 27.3 9.39C26.53 7.68 25.41 6.14 24.02 4.86Z" fill="#FFFFFF" fill-opacity="1.000000" fill-rule="nonzero"/>
			</g>
		</g>
	</g>
</svg>
