<svg width="77.000000" height="21.000000" viewBox="0 0 77 21" fill="none" xmlns="http://www.w3.org/2000/svg" xmlns:xlink="http://www.w3.org/1999/xlink">
	<desc>
			Created with Pixso.
	</desc>
	<defs/>
	<g opacity="0.500000">
		<path id="Vector" d="M42.44 1.3L37.58 11.8L37.08 11.8L37.08 -0.96L30.14 -0.96L30.14 20.51L35.9 20.51C37.46 20.51 38.85 19.61 39.52 18.21L44.41 7.74L44.9 7.74L44.9 20.51L51.84 20.51L51.84 -0.96L46 -0.96C44.49 -0.96 43.08 -0.06 42.44 1.3ZM16.63 1.85L13.76 11.8L13.27 11.8L10.38 1.85C10.14 1.04 9.64 0.32 8.97 -0.18C8.29 -0.69 7.46 -0.96 6.62 -0.96L-0.24 -0.96L-0.24 20.51L6.7 20.51L6.7 7.74L7.2 7.74L11.19 20.51L15.82 20.51L19.81 7.74L20.3 7.74L20.3 20.51L27.25 20.51L27.25 -0.96L20.39 -0.96C18.65 -0.96 17.09 0.17 16.63 1.85L16.63 1.85ZM54.74 8.61L54.74 20.51L61.68 20.51L61.68 13.54L69.15 13.54C70.68 13.55 72.17 13.08 73.43 12.19C74.68 11.31 75.63 10.06 76.15 8.61L54.74 8.61ZM68.94 -0.96L53.49 -0.96C54.45 4.14 58.9 7.74 64.25 7.74L76.26 7.74C76.36 7.25 76.41 6.74 76.41 6.23C76.41 2.08 73.08 -0.96 68.94 -0.96L68.94 -0.96Z" fill="#FFFFFF" fill-opacity="1.000000" fill-rule="nonzero"/>
	</g>
</svg>
