<svg width="64.000000" height="64.000000" viewBox="0 0 64 64" fill="none" xmlns="http://www.w3.org/2000/svg" xmlns:xlink="http://www.w3.org/1999/xlink">
	<desc>
			Created with Pixso.
	</desc>
	<defs/>
	<path id="Vector" d="M31.99 0C14.32 0 0 14.32 0 31.99C0 49.67 14.32 63.99 31.99 63.99C49.67 63.99 63.99 49.67 63.99 31.99C63.99 14.32 49.67 0 31.99 0ZM23.68 33.8L25.58 26.56L27.99 26.56L29.89 33.81L29.99 33.81L31.66 26.56L34.6 26.56L31.39 37.61L28.82 37.61L26.83 30.91L26.74 30.91L24.75 37.61L22.18 37.61L18.97 26.56L21.92 26.56L23.58 33.8L23.68 33.8L23.68 33.8ZM36.7 55.24C35.75 55.36 34.79 55.48 33.83 55.61C33.65 55.63 33.47 55.66 33.29 55.69L30.61 55.69C29.92 55.6 29.24 55.52 28.55 55.42C24.44 54.83 20.72 53.26 17.45 50.7C13.18 47.36 10.29 43.06 9.03 37.78C7.18 29.98 8.82 22.93 13.9 16.7C14.3 16.2 14.76 15.74 15.23 15.21C14.49 14.48 13.76 13.74 13.01 13C12.16 12.15 12.76 10.69 13.96 10.69L21.12 10.69C21.86 10.69 22.47 11.3 22.47 12.04L22.47 19.05C22.47 20.25 21.01 20.85 20.16 20L18.7 18.54C13.99 22.9 11.28 31.13 14.41 39.1C17.52 46.97 26.45 52.86 36.7 50.36L36.7 55.24L36.7 55.24ZM35.71 37.61L35.71 26.56L40.32 26.56C41.15 26.56 41.84 26.68 42.4 26.91C42.96 27.14 43.38 27.47 43.66 27.89C43.94 28.31 44.08 28.8 44.08 29.35C44.08 29.78 44 30.15 43.82 30.48C43.64 30.81 43.4 31.08 43.09 31.3C42.78 31.51 42.43 31.66 42.02 31.75L42.02 31.86C42.46 31.88 42.88 32 43.26 32.22C43.64 32.44 43.94 32.74 44.17 33.13C44.4 33.52 44.52 33.98 44.52 34.52C44.52 35.11 44.37 35.64 44.06 36.11C43.76 36.57 43.32 36.94 42.75 37.21C42.18 37.47 41.49 37.61 40.67 37.61L35.71 37.61L35.71 37.61ZM55.33 36.02C54.54 40.68 52.52 44.72 49.31 48.19C49.16 48.34 49.01 48.5 48.87 48.66C48.85 48.68 48.84 48.72 48.8 48.8C49.51 49.51 50.23 50.23 50.95 50.95C51.82 51.82 51.21 53.31 49.98 53.31L42.91 53.31C42.15 53.31 41.53 52.69 41.53 51.93L41.53 44.96C41.53 43.73 43.02 43.11 43.89 43.98L45.33 45.42C50.3 40.73 52.63 32.45 49.55 24.79C46.43 17.01 37.54 11.12 27.29 13.6L27.29 8.67C28.73 8.54 30.18 8.29 31.63 8.3C40.63 8.37 47.54 12.25 52.33 19.85C54.31 22.99 55.34 26.48 55.61 30.19C55.62 30.32 55.67 30.46 55.69 30.59L55.69 33.37C55.57 34.25 55.48 35.14 55.33 36.02Z" fill="#357EFE" fill-opacity="1.000000" fill-rule="nonzero"/>
</svg>
