<svg width="64.000000" height="64.000000" viewBox="0 0 64 64" fill="none" xmlns="http://www.w3.org/2000/svg" xmlns:xlink="http://www.w3.org/1999/xlink">
	<desc>
			Created with Pixso.
	</desc>
	<defs/>
	<path id="Vector" d="M31.99 0C14.32 0 0 14.32 0 31.99C0 49.67 14.32 63.99 31.99 63.99C49.67 63.99 63.99 49.67 63.99 31.99C63.99 14.32 49.67 0 31.99 0ZM21.83 50.63C19.21 50.63 16.59 50.63 13.97 50.63C13.05 50.63 12.5 50.07 12.5 49.15C12.5 46.93 12.5 44.71 12.5 42.5C12.5 40.3 12.5 38.09 12.5 35.89C12.5 34.9 13.03 34.37 14.01 34.37C16.61 34.37 19.22 34.37 21.83 34.37C22.77 34.37 23.32 34.92 23.32 35.87C23.32 40.29 23.32 44.7 23.32 49.12C23.32 50.07 22.77 50.63 21.83 50.63L21.83 50.63ZM35.26 50.63C32.7 50.63 30.14 50.63 27.57 50.63C26.55 50.63 26.02 50.1 26.02 49.06C26.02 43.24 26.02 37.43 26.02 31.61C26.02 25.85 26.02 20.09 26.02 14.34C26.02 13.17 26.5 12.68 27.66 12.68C30.19 12.68 32.73 12.68 35.26 12.68C36.32 12.68 36.84 13.2 36.84 14.27C36.84 25.86 36.84 37.45 36.84 49.04C36.84 50.1 36.32 50.63 35.27 50.63L35.26 50.63ZM50.36 49.11C50.36 50.08 49.82 50.63 48.84 50.63C46.25 50.63 43.66 50.63 41.07 50.63C40.09 50.63 39.55 50.09 39.55 49.11C39.54 45.1 39.55 41.1 39.55 37.09C39.55 33.11 39.55 29.13 39.55 25.15C39.55 24.02 40.04 23.53 41.17 23.53C43.72 23.53 46.27 23.53 48.82 23.53C49.83 23.53 50.36 24.06 50.36 25.06C50.36 33.08 50.36 41.1 50.36 49.11L50.36 49.11Z" fill="#357EFE" fill-opacity="1.000000" fill-rule="nonzero"/>
</svg>
