<svg width="66.000000" height="66.000000" viewBox="0 0 66 66" fill="none" xmlns="http://www.w3.org/2000/svg" xmlns:xlink="http://www.w3.org/1999/xlink">
	<desc>
			Created with Pixso.
	</desc>
	<defs>
		<clipPath id="clip1_1037">
			<rect id="Frame" rx="0.500000" width="65.000000" height="65.000000" transform="translate(0.500000 0.500000)" fill="white" fill-opacity="0"/>
		</clipPath>
	</defs>
	<rect id="Frame" rx="0.500000" width="65.000000" height="65.000000" transform="translate(0.500000 0.500000)" fill="#000000" fill-opacity="1.000000"/>
	<g clip-path="url(#clip1_1037)">
		<path id="Vector" d="M41.64 31.96C41.86 31.86 42.04 31.72 42.17 31.54C42.3 31.35 42.36 31.13 42.36 30.87C42.36 30.5 42.23 30.21 41.97 30C41.7 29.79 41.35 29.68 40.9 29.68L39.38 29.68L39.38 32.1L40.86 32.1C41.15 32.1 41.41 32.05 41.64 31.96Z" fill="#357EFE" fill-opacity="1.000000" fill-rule="nonzero"/>
		<path id="Vector" d="M41.96 33.99C41.72 33.88 41.42 33.82 41.08 33.82L39.38 33.82L39.38 36.45L41.03 36.45C41.61 36.45 42.04 36.35 42.31 36.12C42.59 35.91 42.73 35.6 42.73 35.21C42.73 34.92 42.66 34.68 42.53 34.47C42.39 34.27 42.21 34.11 41.96 33.99Z" fill="#357EFE" fill-opacity="1.000000" fill-rule="nonzero"/>
		<path id="Vector" d="M32.99 1C15.32 1 1 15.32 1 32.99C1 50.67 15.32 64.99 32.99 64.99C50.67 64.99 64.99 50.67 64.99 32.99C64.99 15.32 50.67 1 32.99 1ZM24.68 34.8L26.58 27.56L28.99 27.56L30.89 34.81L30.99 34.81L32.66 27.56L35.6 27.56L32.39 38.61L29.82 38.61L27.83 31.91L27.74 31.91L25.75 38.61L23.18 38.61L19.97 27.56L22.92 27.56L24.58 34.8L24.68 34.8L24.68 34.8ZM37.7 56.24C36.75 56.36 35.79 56.48 34.83 56.61C34.65 56.63 34.47 56.66 34.29 56.69L31.61 56.69C30.92 56.6 30.24 56.52 29.55 56.42C25.44 55.83 21.72 54.26 18.45 51.7C14.18 48.36 11.29 44.06 10.03 38.78C8.18 30.98 9.82 23.93 14.9 17.7C15.3 17.2 15.76 16.74 16.23 16.21C15.49 15.48 14.76 14.74 14.01 14C13.16 13.15 13.76 11.69 14.96 11.69L22.12 11.69C22.86 11.69 23.47 12.3 23.47 13.04L23.47 20.05C23.47 21.25 22.01 21.85 21.16 21L19.7 19.54C14.99 23.9 12.28 32.13 15.41 40.1C18.52 47.97 27.45 53.86 37.7 51.36L37.7 56.24L37.7 56.24ZM36.71 38.61L36.71 27.56L41.32 27.56C42.15 27.56 42.84 27.68 43.4 27.91C43.96 28.14 44.38 28.47 44.66 28.89C44.94 29.31 45.08 29.8 45.08 30.35C45.08 30.78 45 31.15 44.82 31.48C44.64 31.81 44.4 32.08 44.09 32.3C43.78 32.51 43.43 32.66 43.02 32.75L43.02 32.86C43.46 32.88 43.88 33 44.26 33.22C44.64 33.44 44.94 33.74 45.17 34.13C45.4 34.52 45.52 34.98 45.52 35.52C45.52 36.11 45.37 36.64 45.06 37.11C44.76 37.57 44.32 37.94 43.75 38.21C43.18 38.47 42.49 38.61 41.67 38.61L36.71 38.61L36.71 38.61ZM56.33 37.02C55.54 41.68 53.52 45.72 50.31 49.19C50.16 49.34 50.01 49.5 49.87 49.66C49.85 49.68 49.84 49.72 49.8 49.8C50.51 50.51 51.23 51.23 51.95 51.95C52.82 52.82 52.21 54.31 50.98 54.31L43.91 54.31C43.15 54.31 42.53 53.69 42.53 52.93L42.53 45.96C42.53 44.73 44.02 44.11 44.89 44.98L46.33 46.42C51.3 41.73 53.63 33.45 50.55 25.79C47.43 18.01 38.54 12.12 28.29 14.6L28.29 9.67C29.73 9.54 31.18 9.29 32.63 9.3C41.63 9.37 48.54 13.25 53.33 20.85C55.31 23.99 56.34 27.48 56.61 31.19C56.62 31.32 56.67 31.46 56.69 31.59L56.69 34.37C56.57 35.25 56.48 36.14 56.33 37.02Z" fill="#357EFE" fill-opacity="1.000000" fill-rule="nonzero"/>
	</g>
	<rect id="Frame" rx="0.500000" width="65.000000" height="65.000000" transform="translate(0.500000 0.500000)" stroke="#FFFFFF" stroke-opacity="1.000000" stroke-width="1.000000"/>
</svg>
