<svg width="66.000000" height="66.000000" viewBox="0 0 66 66" fill="none" xmlns="http://www.w3.org/2000/svg" xmlns:xlink="http://www.w3.org/1999/xlink">
	<desc>
			Created with Pixso.
	</desc>
	<defs>
		<clipPath id="clip1_1033">
			<rect id="Frame" rx="0.500000" width="65.000000" height="65.000000" transform="translate(0.500000 0.500000)" fill="white" fill-opacity="0"/>
		</clipPath>
	</defs>
	<rect id="Frame" rx="0.500000" width="65.000000" height="65.000000" transform="translate(0.500000 0.500000)" fill="#000000" fill-opacity="1.000000"/>
	<g clip-path="url(#clip1_1033)">
		<path id="Vector" d="M32.99 1C15.32 1 1 15.32 1 32.99C1 50.67 15.32 64.99 32.99 64.99C50.67 64.99 64.99 50.67 64.99 32.99C64.99 15.32 50.67 1 32.99 1ZM22.83 51.63C20.21 51.63 17.59 51.63 14.97 51.63C14.05 51.63 13.5 51.07 13.5 50.15C13.5 47.93 13.5 45.71 13.5 43.5C13.5 41.3 13.5 39.09 13.5 36.89C13.5 35.9 14.03 35.37 15.01 35.37C17.61 35.37 20.22 35.37 22.83 35.37C23.77 35.37 24.32 35.92 24.32 36.87C24.32 41.29 24.32 45.7 24.32 50.12C24.32 51.07 23.77 51.63 22.83 51.63L22.83 51.63ZM36.26 51.63C33.7 51.63 31.14 51.63 28.57 51.63C27.55 51.63 27.02 51.1 27.02 50.06C27.02 44.24 27.02 38.43 27.02 32.61C27.02 26.85 27.02 21.09 27.02 15.34C27.02 14.17 27.5 13.68 28.66 13.68C31.19 13.68 33.73 13.68 36.26 13.68C37.32 13.68 37.84 14.2 37.84 15.27C37.84 26.86 37.84 38.45 37.84 50.04C37.84 51.1 37.32 51.63 36.27 51.63L36.26 51.63ZM51.36 50.11C51.36 51.08 50.82 51.63 49.84 51.63C47.25 51.63 44.66 51.63 42.07 51.63C41.09 51.63 40.55 51.09 40.55 50.11C40.54 46.1 40.55 42.1 40.55 38.09C40.55 34.11 40.55 30.13 40.55 26.15C40.55 25.02 41.04 24.53 42.17 24.53C44.72 24.53 47.27 24.53 49.82 24.53C50.83 24.53 51.36 25.06 51.36 26.06C51.36 34.08 51.36 42.1 51.36 50.11L51.36 50.11Z" fill="#357EFE" fill-opacity="1.000000" fill-rule="nonzero"/>
	</g>
	<rect id="Frame" rx="0.500000" width="65.000000" height="65.000000" transform="translate(0.500000 0.500000)" stroke="#FFFFFF" stroke-opacity="1.000000" stroke-width="1.000000"/>
</svg>
