<svg width="66.000000" height="66.000000" viewBox="0 0 66 66" fill="none" xmlns="http://www.w3.org/2000/svg" xmlns:xlink="http://www.w3.org/1999/xlink">
	<desc>
			Created with Pixso.
	</desc>
	<defs>
		<clipPath id="clip1_1043">
			<rect id="Frame" rx="0.500000" width="65.000000" height="65.000000" transform="translate(0.500000 0.500000)" fill="white" fill-opacity="0"/>
		</clipPath>
	</defs>
	<rect id="Frame" rx="0.500000" width="65.000000" height="65.000000" transform="translate(0.500000 0.500000)" fill="#000000" fill-opacity="1.000000"/>
	<g clip-path="url(#clip1_1043)">
		<path id="Vector" d="M1 32.99C1 15.32 15.32 1 32.99 1C50.67 1 64.99 15.32 64.99 32.99C64.99 50.67 50.67 64.99 32.99 64.99C15.32 64.99 1 50.67 1 32.99ZM42.33 36.95C45.63 36.2 47.79 34.3 48.35 30.86L48.35 30.86C48.87 27.74 48.88 24.61 48.15 21.51C47.46 18.59 45.69 16.7 42.76 15.87C40.51 15.23 38.2 14.98 35.88 15.03C31.4 15.15 26.93 15.37 22.45 15.55C21.56 15.58 21.46 15.7 21.46 16.6L21.46 31.23C21.1 31.23 20.74 31.23 20.39 31.23C19.63 31.23 18.89 31.23 18.16 31.23C17.43 31.23 17.28 31.39 17.27 32.13C17.27 32.7 17.27 33.27 17.27 33.85C17.27 34.13 17.27 34.42 17.27 34.7C17.27 35.68 17.37 35.78 18.33 35.78L21.42 35.78L21.42 40.37C21.07 40.37 20.74 40.37 20.4 40.37C19.62 40.37 18.86 40.36 18.1 40.37C17.46 40.38 17.28 40.57 17.28 41.22C17.27 41.76 17.27 42.31 17.27 42.85C17.27 43.07 17.27 43.29 17.27 43.5Q17.27 44.25 17.65 44.62Q18.02 44.99 18.75 44.99L21.47 44.99L21.47 45.71C21.47 46.15 21.47 46.58 21.47 47.01C21.47 48.06 21.48 49.11 21.46 50.16C21.45 50.73 21.68 50.97 22.25 50.97C23.44 50.96 24.64 50.96 25.84 50.96C26.92 50.96 28.01 50.96 29.09 50.96C29.76 50.96 29.89 50.82 29.89 50.11C29.9 49.04 29.9 47.97 29.9 46.9C29.89 46.48 29.89 46.07 29.89 45.66L29.89 45L30.61 45C31.25 45 31.88 45 32.51 45C34.2 45 35.89 45 37.57 45C38.44 44.99 38.58 44.83 38.58 43.97C38.59 43.11 38.59 42.25 38.58 41.39C38.58 40.53 38.43 40.37 37.57 40.37C35.9 40.37 34.23 40.37 32.55 40.37C31.89 40.37 31.22 40.37 30.55 40.37L29.92 40.37L29.92 37.53C30.46 37.53 30.99 37.53 31.52 37.53C32.72 37.53 33.89 37.53 35.06 37.52C37.5 37.5 39.93 37.5 42.33 36.95ZM36.53 22.44C36.68 22.45 36.84 22.47 36.99 22.49L36.99 22.5C39.27 22.89 39.97 23.6 40.12 25.92C40.18 26.86 40.1 27.83 39.96 28.76C39.78 29.9 39.09 30.67 37.91 30.88C37.11 31.03 36.3 31.18 35.49 31.2C34.24 31.24 32.98 31.23 31.73 31.23C31.25 31.23 30.77 31.22 30.28 31.22C30.17 31.22 30.06 31.21 29.92 31.19L29.92 22.41C30 22.39 30.05 22.35 30.1 22.35C32.24 22.38 34.39 22.41 36.53 22.44Z" fill="#357EFE" fill-opacity="1.000000" fill-rule="evenodd"/>
	</g>
	<rect id="Frame" rx="0.500000" width="65.000000" height="65.000000" transform="translate(0.500000 0.500000)" stroke="#FFFFFF" stroke-opacity="1.000000" stroke-width="1.000000"/>
</svg>
