<svg width="64.000000" height="64.000000" viewBox="0 0 64 64" fill="none" xmlns="http://www.w3.org/2000/svg" xmlns:xlink="http://www.w3.org/1999/xlink">
	<desc>
			Created with Pixso.
	</desc>
	<defs/>
	<path id="Vector" d="M0 31.99C0 14.32 14.32 0 31.99 0C49.67 0 63.99 14.32 63.99 31.99C63.99 49.67 49.67 63.99 31.99 63.99C14.32 63.99 0 49.67 0 31.99ZM41.33 35.95C44.63 35.2 46.79 33.3 47.35 29.86L47.35 29.86C47.87 26.74 47.88 23.61 47.15 20.51C46.46 17.59 44.69 15.7 41.76 14.87C39.51 14.23 37.2 13.98 34.88 14.03C30.4 14.15 25.93 14.37 21.45 14.55C20.56 14.58 20.46 14.7 20.46 15.6L20.46 30.23C20.1 30.23 19.74 30.23 19.39 30.23C18.63 30.23 17.89 30.23 17.16 30.23C16.43 30.23 16.28 30.39 16.27 31.13C16.27 31.7 16.27 32.27 16.27 32.85C16.27 33.13 16.27 33.42 16.27 33.7C16.27 34.68 16.37 34.78 17.33 34.78L20.42 34.78L20.42 39.37C20.07 39.37 19.74 39.37 19.4 39.37C18.62 39.37 17.86 39.36 17.1 39.37C16.46 39.38 16.28 39.57 16.28 40.22C16.27 40.76 16.27 41.31 16.27 41.85C16.27 42.07 16.27 42.29 16.27 42.5Q16.27 43.25 16.65 43.62Q17.02 43.99 17.75 43.99L20.47 43.99L20.47 44.71C20.47 45.15 20.47 45.58 20.47 46.01C20.47 47.06 20.48 48.11 20.46 49.16C20.45 49.73 20.68 49.97 21.25 49.97C22.44 49.96 23.64 49.96 24.84 49.96C25.92 49.96 27.01 49.96 28.09 49.96C28.76 49.96 28.89 49.82 28.89 49.11C28.9 48.04 28.9 46.97 28.9 45.9C28.89 45.48 28.89 45.07 28.89 44.66L28.89 44L29.61 44C30.25 44 30.88 44 31.51 44C33.2 44 34.89 44 36.57 44C37.44 43.99 37.58 43.83 37.58 42.97C37.59 42.11 37.59 41.25 37.58 40.39C37.58 39.53 37.43 39.37 36.57 39.37C34.9 39.37 33.23 39.37 31.55 39.37C30.89 39.37 30.22 39.37 29.55 39.37L28.92 39.37L28.92 36.53C29.46 36.53 29.99 36.53 30.52 36.53C31.72 36.53 32.89 36.53 34.06 36.52C36.5 36.5 38.93 36.5 41.33 35.95ZM35.53 21.44C35.68 21.45 35.84 21.47 35.99 21.49L35.99 21.5C38.27 21.89 38.97 22.6 39.12 24.92C39.18 25.86 39.1 26.83 38.96 27.76C38.78 28.9 38.09 29.67 36.91 29.88C36.11 30.03 35.3 30.18 34.49 30.2C33.24 30.24 31.98 30.23 30.73 30.23C30.25 30.23 29.77 30.22 29.28 30.22C29.17 30.22 29.06 30.21 28.92 30.19L28.92 21.41C29 21.39 29.05 21.35 29.1 21.35C31.24 21.38 33.39 21.41 35.53 21.44Z" fill="#357EFE" fill-opacity="1.000000" fill-rule="evenodd"/>
</svg>
