<svg width="104.000000" height="104.000000" viewBox="0 0 104 104" fill="none" xmlns="http://www.w3.org/2000/svg" xmlns:xlink="http://www.w3.org/1999/xlink">
	<desc>
			Created with Pixso.
	</desc>
	<defs>
		<filter id="filter_1_1487_dd" x="0.000000" y="0.000000" width="104.000000" height="104.000000" filterUnits="userSpaceOnUse" color-interpolation-filters="sRGB">
			<feFlood flood-opacity="0" result="BackgroundImageFix"/>
			<feColorMatrix in="SourceAlpha" type="matrix" values="0 0 0 0 0 0 0 0 0 0 0 0 0 0 0 0 0 0 127 0" result="hardAlpha"/>
			<feOffset dx="0" dy="0"/>
			<feGaussianBlur stdDeviation="10.6667"/>
			<feComposite in2="hardAlpha" operator="out" k2="-1" k3="1"/>
			<feColorMatrix type="matrix" values="0 0 0 0 0.30588 0 0 0 0 0.36471 0 0 0 0 0.48627 0 0 0 0.32 0"/>
			<feBlend mode="normal" in2="BackgroundImageFix" result="effect_dropShadow_1"/>
			<feBlend mode="normal" in="SourceGraphic" in2="effect_dropShadow_1" result="shape"/>
		</filter>
	</defs>
	<g opacity="0.600000" filter="url(#filter_1_1487_dd)">
		<circle id="Ellipse 16" r="20.000000" transform="matrix(-1 -1 8.74228e-08 -8.74228e-08 52 52)" fill="#FFFFFF" fill-opacity="1.000000"/>
	</g>
	<path id="chevron-circle-right-Bold" d="M44.7 53.76C43.76 52.78 43.76 51.2 44.7 50.23L51.9 42.73C52.37 42.24 52.98 42 53.59 42C54.21 42 54.82 42.24 55.29 42.73C56.23 43.71 56.23 45.29 55.29 46.26L49.79 51.99L55.29 57.73C56.23 58.7 56.23 60.28 55.29 61.26C54.35 62.24 52.84 62.24 51.9 61.26L44.7 53.76Z" fill="#357EFE" fill-opacity="1.000000" fill-rule="evenodd"/>
</svg>
