<svg width="32.000000" height="23.000000" viewBox="0 0 32 23" fill="none" xmlns="http://www.w3.org/2000/svg" xmlns:xlink="http://www.w3.org/1999/xlink">
	<desc>
			Created with Pixso.
	</desc>
	<defs>
		<clipPath id="clip1_1492">
			<rect id="Frame" width="32.000000" height="23.000000" fill="white" fill-opacity="0"/>
		</clipPath>
	</defs>
	<rect id="Frame" width="32.000000" height="23.000000" fill="#FFFFFF" fill-opacity="0"/>
	<g clip-path="url(#clip1_1492)">
		<path id="Vector" d="M0 2.49L0.25 1.68L9.92 11.47L0.25 21.26C0.18 21.06 0.09 20.78 0 20.5L0 2.49Z" fill="#FFFFFF" fill-opacity="1.000000" fill-rule="nonzero"/>
		<path id="Vector" d="M1.68 0.18C2.1 0.12 2.52 0.01 2.93 0.01C5.3 -0.01 7.66 0 10.03 0C16.35 0 22.67 0 28.99 0C29.45 0 29.89 0.04 30.36 0.29C29.91 0.74 29.49 1.16 29.07 1.59C24.99 5.77 20.91 9.95 16.83 14.14C16.33 14.65 15.67 14.66 15.17 14.14C10.73 9.59 6.29 5.04 1.85 0.49C1.79 0.43 1.73 0.36 1.68 0.3L1.68 0.18Z" fill="#FFFFFF" fill-opacity="1.000000" fill-rule="nonzero"/>
		<path id="Vector" d="M30.37 22.76C30 22.85 29.68 22.92 29.36 22.98C29.23 23 29.11 23 28.98 22.99C20.32 22.99 11.66 22.99 2.99 22.98C2.56 22.98 2.12 22.88 1.61 22.81L11.33 12.97L11.27 12.88C11.35 12.95 11.42 13.02 11.49 13.09C12.24 13.85 13.01 14.58 13.71 15.38C14.96 16.79 17.05 16.77 18.29 15.37C19.06 14.51 19.91 13.72 20.67 12.94L30.37 22.76Z" fill="#FFFFFF" fill-opacity="1.000000" fill-rule="nonzero"/>
		<path id="Vector" d="M31.78 1.7C31.84 2.04 31.98 2.43 31.98 2.81C32 8.6 32 14.39 31.98 20.18C31.98 20.57 31.84 20.96 31.77 21.35L22.07 11.52L31.78 1.7Z" fill="#FFFFFF" fill-opacity="1.000000" fill-rule="nonzero"/>
	</g>
</svg>
