<svg width="79.000000" height="25.000000" viewBox="0 0 79 25" fill="none" xmlns="http://www.w3.org/2000/svg" xmlns:xlink="http://www.w3.org/1999/xlink">
	<desc>
			Created with Pixso.
	</desc>
	<defs/>
	<g opacity="0.500000">
		<path id="Vector" d="M51.07 -0.78C45.5 -0.78 40.51 2.09 40.51 7.37C40.51 13.43 49.35 13.86 49.35 16.9C49.35 18.19 47.86 19.33 45.33 19.33C41.73 19.33 39.04 17.72 39.04 17.72L37.89 23.07C37.89 23.07 40.98 24.42 45.1 24.42C51.2 24.42 56 21.41 56 16.04C56 9.63 47.12 9.22 47.12 6.39C47.12 5.39 48.34 4.28 50.87 4.28C53.72 4.28 56.05 5.45 56.05 5.45L57.18 0.3C57.18 0.3 54.64 -0.78 51.08 -0.78L51.07 -0.78ZM0.04 -0.39L-0.1 0.39C-0.1 0.39 2.25 0.82 4.36 1.66C7.08 2.64 7.28 3.21 7.74 4.97L12.73 24.02L19.42 24.02L29.74 -0.39L23.06 -0.39L16.44 16.21L13.73 2.14C13.49 0.53 12.23 -0.39 10.69 -0.39L0.04 -0.39L0.04 -0.39ZM32.43 -0.39L27.19 24.02L33.56 24.02L38.77 -0.39L32.43 -0.39L32.43 -0.39ZM67.95 -0.39C66.42 -0.39 65.6 0.43 65 1.84L55.67 24.02L62.35 24.02L63.64 20.32L71.78 20.32L72.56 24.02L78.46 24.02L73.32 -0.39L67.95 -0.39L67.95 -0.39ZM68.82 6.2L70.8 15.37L65.49 15.37L68.82 6.2Z" fill="#FFFFFF" fill-opacity="1.000000" fill-rule="nonzero"/>
	</g>
</svg>
